<?xml version="1.0" encoding="UTF-8" standalone="no"?>
<!-- Created with Inkscape (http://www.inkscape.org/) -->

<svg
   xmlns:dc="http://purl.org/dc/elements/1.1/"
   xmlns:cc="http://creativecommons.org/ns#"
   xmlns:rdf="http://www.w3.org/1999/02/22-rdf-syntax-ns#"
   xmlns:svg="http://www.w3.org/2000/svg"
   xmlns="http://www.w3.org/2000/svg"
   xmlns:sodipodi="http://sodipodi.sourceforge.net/DTD/sodipodi-0.dtd"
   xmlns:inkscape="http://www.inkscape.org/namespaces/inkscape"
   width="1254.8918"
   height="349.46097"
   viewBox="0 0 332.02347 92.461546"
   version="1.1"
   id="svg8"
   inkscape:version="0.92.2 5c3e80d, 2017-08-06"
   sodipodi:docname="logo.svg"
   inkscape:export-filename="/Users/kotsurm/Desktop/typesafe_utrecht_logo.png"
   inkscape:export-xdpi="96"
   inkscape:export-ydpi="96">
  <defs
     id="defs2" />
  <sodipodi:namedview
     id="base"
     pagecolor="#ffffff"
     bordercolor="#666666"
     borderopacity="1.0"
     inkscape:pageopacity="0.0"
     inkscape:pageshadow="2"
     inkscape:zoom="1.4142136"
     inkscape:cx="465.11666"
     inkscape:cy="43.819869"
     inkscape:document-units="mm"
     inkscape:current-layer="layer1"
     showgrid="false"
     units="px"
     showborder="false"
     inkscape:window-width="1440"
     inkscape:window-height="855"
     inkscape:window-x="-1"
     inkscape:window-y="2"
     inkscape:window-maximized="0"
     inkscape:snap-bbox="true"
     fit-margin-top="0"
     fit-margin-left="0"
     fit-margin-right="0"
     fit-margin-bottom="0"
     inkscape:pagecheckerboard="true" />
  <metadata
     id="metadata5">
    <rdf:RDF>
      <cc:Work
         rdf:about="">
        <dc:format>image/svg+xml</dc:format>
        <dc:type
           rdf:resource="http://purl.org/dc/dcmitype/StillImage" />
        <dc:title></dc:title>
      </cc:Work>
    </rdf:RDF>
  </metadata>
  <g
     inkscape:label="Layer 1"
     inkscape:groupmode="layer"
     id="layer1"
     style="display:inline;opacity:0.91000001"
     transform="translate(-2.6457558,-201.89268)">
    <flowRoot
       xml:space="preserve"
       id="flowRoot4504"
       style="font-style:normal;font-weight:normal;font-size:40px;line-height:1.25;font-family:sans-serif;letter-spacing:0px;word-spacing:0px;fill:#000000;fill-opacity:1;stroke:none"
       transform="scale(0.26458333)"><flowRegion
         id="flowRegion4506"><rect
           id="rect4508"
           width="115"
           height="69"
           x="-71"
           y="412.51965" /></flowRegion><flowPara
         id="flowPara4510" /></flowRoot>    <text
       xml:space="preserve"
       style="font-style:normal;font-weight:normal;font-size:10.58333302px;line-height:1.25;font-family:sans-serif;letter-spacing:0px;word-spacing:0px;fill:#000000;fill-opacity:1;stroke:none;stroke-width:0.26458332"
       x="-7.4083333"
       y="115.49583"
       id="text4514"><tspan
         sodipodi:role="line"
         id="tspan4512"
         x="-7.4083333"
         y="124.8596"
         style="stroke-width:0.26458332" /></text>
    <text
       xml:space="preserve"
       style="font-style:normal;font-weight:normal;font-size:10.58333302px;line-height:1.25;font-family:sans-serif;letter-spacing:0px;word-spacing:0px;fill:#000000;fill-opacity:1;stroke:none;stroke-width:0.26458332"
       x="-8.7312498"
       y="110.99791"
       id="text4518"><tspan
         sodipodi:role="line"
         id="tspan4516"
         x="-8.7312498"
         y="120.36168"
         style="stroke-width:0.26458332" /></text>
    <rect
       style="opacity:1;fill:#cd0000;fill-opacity:1;stroke:#000000;stroke-width:0.546;stroke-miterlimit:4;stroke-dasharray:none;stroke-dashoffset:0;stroke-opacity:1"
       id="rect4579"
       width="91.793739"
       height="91.793739"
       x="2.9187558"
       y="202.28749"
       inkscape:export-filename="/Users/kotsurm/Desktop/ex1.png"
       inkscape:export-xdpi="96"
       inkscape:export-ydpi="96" />
    <path
       style="fill:#ffffff;stroke:#000000;stroke-width:0.27256289px;stroke-linecap:butt;stroke-linejoin:miter;stroke-opacity:1"
       d="M 94.720832,294.08957 3.4742971,201.9886"
       id="path4581"
       inkscape:connector-curvature="0"
       inkscape:export-filename="/Users/kotsurm/Desktop/ex1.png"
       inkscape:export-xdpi="96"
       inkscape:export-ydpi="96" />
    <path
       style="opacity:1;fill:#ffffff;fill-opacity:1;stroke:none;stroke-width:0.54905808;stroke-miterlimit:4;stroke-dasharray:0.54905807, 1.09811613;stroke-dashoffset:0;stroke-opacity:1"
       d="M 50.907807,250.12424 C 26.816626,225.90819 6.2509872,205.23878 5.2063849,204.19224 l -1.8992761,-1.9028 45.6350522,10e-4 c 31.981617,8.5e-4 45.644985,0.0916 45.668239,0.30267 0.01826,0.16572 0.04853,20.83792 0.06729,45.93821 0.01877,25.10029 0.03369,45.63351 0.03318,45.62934 -5.31e-4,-0.004 -19.711894,-19.82073 -43.803073,-44.0368 z"
       id="path4583"
       inkscape:connector-curvature="0"
       inkscape:export-filename="/Users/kotsurm/Desktop/ex1.png"
       inkscape:export-xdpi="96"
       inkscape:export-ydpi="96" />
    <g
       id="g7004"
       transform="matrix(0.88433538,0,0,0.88329745,-44.973755,148.76733)"
       inkscape:export-filename="/Users/kotsurm/Desktop/ex1.png"
       inkscape:export-xdpi="96"
       inkscape:export-ydpi="96">
      <path
         style="fill:#d7dadb;stroke-width:0.16043296"
         d="m 145.29898,131.79978 c -0.48922,-0.15799 -1.08937,-0.38038 -1.33366,-0.49418 -0.24429,-0.11381 -5.1203,-5.07837 -10.83558,-11.03236 -5.71527,-5.95398 -12.35908,-12.87165 -14.76401,-15.37259 -2.40493,-2.50093 -4.98849,-5.034308 -5.74124,-5.629715 -1.36473,-1.079463 -4.69763,-2.850105 -5.74377,-3.051439 -0.48694,-0.09371 -0.50112,-0.07739 -1.03161,1.187048 -0.32163,0.766606 -0.72489,1.436914 -1.003,1.667205 -0.62711,0.519278 -1.64497,0.650715 -2.55797,0.33031 -0.90399,-0.317241 -1.24084,-0.616402 -1.7086,-1.51741 -0.670007,-1.2906 -1.322916,-2.013442 -3.229501,-3.575425 -1.034143,-0.84723 -2.195007,-1.961166 -2.579697,-2.475414 -1.25247,-1.674283 -3.164087,-5.63509 -3.164087,-6.555884 0,-0.519694 0.507022,-1.579232 0.977061,-2.04179 0.174207,-0.171434 0.519492,-0.311699 0.767301,-0.311699 0.247809,0 2.230963,0.72112 4.407008,1.602488 2.176046,0.881368 4.063635,1.615453 4.194635,1.6313 0.31196,0.03773 1.76908,-3.412559 1.77737,-4.208589 0.015,-1.441668 0.14882,-1.325565 -3.829067,-3.322281 -2.242989,-1.125877 -3.742986,-1.974523 -3.897643,-2.205151 -0.212834,-0.31738 -0.222569,-0.510242 -0.06344,-1.256814 0.289712,-1.359228 0.742253,-1.706499 3.267854,-2.507682 1.846276,-0.585684 4.933266,-0.729245 6.967346,-0.324016 3.71082,0.739272 6.11404,2.391376 7.33581,5.043047 0.2161,0.469006 0.76278,2.499953 1.21486,4.513215 1.28008,5.700726 1.84789,7.279181 3.51991,9.785014 0.76002,1.139037 3.38949,3.808817 16.46132,16.713662 8.55625,8.44695 15.71494,15.58612 15.9082,15.86481 1.39721,2.01493 1.07257,4.77729 -0.77337,6.58056 -1.32193,1.29137 -2.65335,1.57386 -4.54243,0.96378 z m 1.40631,-3.18995 c 0.69414,-0.41651 1.05784,-1.0017 1.07734,-1.73342 0.0181,-0.67917 -0.41455,-1.4566 -0.81061,-1.4566 -0.79116,0 -1.83562,1.19186 -1.83416,2.09301 8.1e-4,0.46294 0.56907,1.40852 0.84607,1.40772 0.1125,-3.2e-4 0.4371,-0.14015 0.72136,-0.31071 z m -34.89491,-37.749115 0.70104,-1.933097 -0.3852,-0.291481 c -0.47277,-0.357748 -0.56717,-0.365256 -0.68825,-0.05474 -0.0636,0.163068 0.0417,0.294999 0.31791,0.398343 0.61798,0.231216 0.45417,0.72292 -0.22328,0.670227 -0.57793,-0.04495 -0.70435,0.199886 -0.18669,0.361569 0.46877,0.146414 0.33564,0.633732 -0.17314,0.633732 -0.54899,0 -0.69842,0.262587 -0.26925,0.473147 0.51798,0.254128 0.44848,0.639622 -0.11668,0.647196 -0.34318,0.0046 -0.50725,0.107999 -0.61153,0.38541 -0.15871,0.422216 0.0428,0.636228 0.60298,0.640352 0.27752,0.002 0.44443,-0.310173 1.03209,-1.93066 z"
         id="path7018"
         inkscape:connector-curvature="0" />
      <path
         style="fill:#ced0d1;stroke-width:0.16043296"
         d="m 145.4607,131.85031 c -0.48922,-0.12809 -1.20071,-0.42776 -1.5811,-0.66592 -0.38039,-0.23816 -7.17735,-7.19577 -15.10436,-15.46136 -7.92701,-8.26558 -14.82064,-15.38366 -15.31917,-15.817955 -1.79704,-1.56547 -5.09448,-3.415335 -6.59465,-3.699603 -0.43896,-0.08318 -0.48236,-0.03237 -1.08074,1.265143 -0.72538,1.572882 -0.90311,1.761888 -1.90465,2.025497 -0.65143,0.171457 -0.85397,0.157486 -1.61382,-0.111312 -0.91215,-0.322677 -0.90023,-0.309382 -2.37941,-2.653841 -0.337988,-0.535702 -1.050187,-1.258991 -1.918893,-1.948776 -2.067111,-1.641362 -3.119198,-2.74135 -3.978519,-4.15966 -1.046631,-1.727464 -2.379133,-4.703249 -2.379133,-5.313151 0,-0.568387 0.678611,-1.797816 1.185012,-2.146868 0.188366,-0.129837 0.490037,-0.234071 0.67038,-0.231631 0.180343,0.0024 2.183692,0.75164 4.451886,1.66489 3.187997,1.283594 4.165417,1.616709 4.306517,1.467713 0.10038,-0.106008 0.48908,-0.98054 0.86376,-1.943405 0.59057,-1.517648 0.67223,-1.876546 0.61353,-2.696432 -0.0372,-0.520172 -0.13483,-0.973059 -0.21687,-1.006414 -0.082,-0.03336 -1.78566,-0.896884 -3.785838,-1.918953 -4.187259,-2.139642 -4.171352,-2.123636 -3.634743,-3.6572 0.310125,-0.886298 0.344518,-0.920038 1.530193,-1.501105 1.715624,-0.840781 2.858888,-1.103608 5.175198,-1.189739 3.73413,-0.138852 6.88052,0.850728 8.9636,2.819168 1.65471,1.563653 2.03892,2.515685 3.24331,8.036617 0.95376,4.372026 1.87734,6.783671 3.44366,8.992042 0.44666,0.629738 6.88224,7.105652 16.44864,16.551725 14.82835,14.64183 15.74041,15.57464 16.16692,16.53468 0.39914,0.89845 0.44334,1.15903 0.37796,2.22812 -0.0577,0.94349 -0.18367,1.42141 -0.57083,2.16558 -1.15854,2.22686 -2.93688,3.01128 -5.37784,2.37215 z m -2.45294,-3.60557 c -1.01531,-1.07228 -4.82687,-5.09934 -8.47013,-8.94901 -12.21937,-12.9117 -18.5032,-19.367421 -20.38158,-20.939077 -2.55313,-2.136234 -5.13771,-3.4807 -8.12464,-4.226338 -2.30519,-0.575454 -2.09899,-0.683767 -2.98499,1.568005 -0.4219,1.072282 -0.76692,2.030773 -0.7667,2.12998 9.4e-4,0.43105 1.6799,0.383841 1.84986,-0.05202 0.0495,-0.127047 0.0159,-0.367282 -0.0746,-0.533856 -0.13773,-0.253264 -0.0994,-0.318998 0.23426,-0.401402 0.48178,-0.118996 0.60836,-0.524257 0.28233,-0.903979 -0.2159,-0.251459 -0.20633,-0.278514 0.0985,-0.278514 0.38627,0 0.59675,-0.469756 0.43508,-0.971033 -0.099,-0.307063 -0.0635,-0.325499 0.43384,-0.225324 3.1947,0.643426 6.33259,2.236348 8.97696,4.557071 0.6367,0.558769 6.85204,6.960247 13.81187,14.225497 13.66706,14.2668 16.26667,16.9496 16.42403,16.9496 0.0561,0 -0.72872,-0.87732 -1.74404,-1.9496 z m 4.18171,-0.0326 c 0.61611,-0.64331 0.81823,-1.47011 0.51037,-2.08777 -0.34315,-0.68846 -0.6752,-0.81444 -1.33302,-0.50574 -0.77441,0.36341 -1.14871,0.978 -1.14871,1.88617 0,1.46153 0.92961,1.79508 1.97136,0.70734 z M 102.5918,94.70876 c 0.27332,-0.697442 0.49693,-1.306196 0.49693,-1.352785 0,-0.117825 -1.5329,-0.106571 -1.8511,0.01359 -0.14317,0.05406 -0.33327,0.232466 -0.42245,0.396446 -0.13082,0.240555 -0.0362,0.454892 0.48967,1.109626 0.35849,0.446314 0.65181,0.876667 0.65181,0.956339 0,0.36095 0.17438,0.05256 0.63514,-1.123216 z m -1.74588,-3.211856 0.56257,-1.456058 -0.25167,-1.351621 c -0.15223,-0.817583 -0.34746,-1.406651 -0.49411,-1.490899 -0.47337,-0.271942 -6.666361,-2.698215 -6.729221,-2.636355 -0.125694,0.123694 0.5967,1.940556 1.233542,3.102431 0.931787,1.699978 1.965745,2.921304 3.54144,4.183195 0.759134,0.607951 1.424039,1.105365 1.477559,1.105365 0.0535,0 0.35048,-0.655225 0.65989,-1.456058 z m 10.95448,-0.573119 c 0.3682,-1.028515 0.66922,-1.948054 0.66892,-2.043419 -6.4e-4,-0.217015 -0.78084,-0.578798 -0.983,-0.455842 -0.23118,0.140602 -0.17672,0.549659 0.0732,0.549659 0.12253,0 0.30537,0.09792 0.40631,0.21761 0.25154,0.298275 -0.12314,0.595313 -0.59708,0.473348 -0.45183,-0.116276 -0.45443,0.05449 -0.006,0.411603 0.42718,0.340399 0.25657,0.70789 -0.28163,0.606644 -0.48656,-0.09153 -0.6025,0.22641 -0.16147,0.442791 0.5047,0.247614 0.42586,0.633149 -0.12947,0.633149 -0.34514,0 -0.50372,0.09995 -0.61153,0.385409 -0.16298,0.43157 0.0363,0.642543 0.61074,0.646638 0.29118,0.0021 0.44111,-0.27481 1.01132,-1.86759 z m -6.02772,1.344563 c 0.0532,-0.164978 -0.0209,-0.418631 -0.16954,-0.580262 -0.51788,-0.563144 -0.48677,-1.302081 0.12187,-2.894088 1.18763,-3.106484 1.32136,-3.3057 2.32722,-3.466914 l 0.57998,-0.09296 1.65946,-3.89822 c 1.88993,-4.43959 1.86501,-4.126054 0.43272,-5.444468 -2.50811,-2.308706 -7.20791,-3.102 -11.195908,-1.88979 -2.029512,0.616901 -2.085836,0.555272 2.132228,2.333031 l 3.77304,1.590196 0.26862,1.665236 0.26861,1.665236 -1.3391,3.023872 c -1.03882,2.345809 -3.32605,8.019164 -3.32131,8.238354 4.5e-4,0.02063 0.98333,0.03894 2.1842,0.04069 1.98038,0.0029 2.19217,-0.02407 2.27791,-0.289921 z m -3.58693,-4.192276 c 0.0561,-0.143828 0.0687,-0.294236 0.0281,-0.334239 -0.12853,-0.126483 -0.41888,0.127499 -0.41888,0.366411 0,0.312178 0.26505,0.29036 0.39082,-0.03217 z"
         id="path7016"
         inkscape:connector-curvature="0" />
      <path
         style="fill:#afafb0;stroke-width:0.16043296"
         d="m 145.62243,131.88353 c -1.13107,-0.328 -1.81484,-0.66102 -2.37207,-1.15527 -0.28173,-0.24989 -6.82131,-7.0432 -14.5324,-15.09625 -7.71109,-8.05305 -14.49255,-15.05635 -15.06993,-15.56289 -1.91576,-1.680727 -3.93604,-2.888402 -6.1258,-3.661851 l -1.14602,-0.404788 -0.52751,1.269639 c -0.65354,1.572994 -1.0195,1.987049 -1.97058,2.229572 -0.64805,0.16525 -0.86212,0.149764 -1.61591,-0.116892 -0.71798,-0.253991 -0.9534,-0.439324 -1.35542,-1.067069 -0.26758,-0.417831 -0.73445,-1.146231 -1.037483,-1.618666 -0.338195,-0.527259 -1.087648,-1.288153 -1.940701,-1.97033 -2.062551,-1.649397 -3.099269,-2.743506 -3.984216,-4.204768 -0.925819,-1.528754 -2.334823,-4.649573 -2.336782,-5.175765 -0.0019,-0.508463 0.728764,-1.872148 1.163727,-2.171959 0.199328,-0.137393 0.49883,-0.249806 0.66556,-0.249806 0.166729,0 2.168378,0.751104 4.448109,1.66912 3.241446,1.305285 4.184696,1.626184 4.327246,1.472148 0.10025,-0.108334 0.48434,-0.94896 0.85354,-1.868058 0.6682,-1.663451 0.8351,-2.79137 0.52724,-3.563084 -0.0742,-0.186018 -1.53305,-1.004479 -3.829606,-2.148541 -4.269807,-2.127068 -4.244185,-2.101837 -3.703535,-3.64695 0.295261,-0.843818 0.384529,-0.941962 1.287606,-1.415623 1.797251,-0.942653 3.242325,-1.240932 5.983825,-1.235125 2.78146,0.0059 3.90697,0.227339 5.98383,1.177347 2.04683,0.936269 3.69808,2.624706 4.37423,4.472722 0.14275,0.390163 0.57655,2.141747 0.96401,3.89241 1.12145,5.067088 1.79556,7.102609 3.04953,9.208293 0.98864,1.660133 3.11323,3.842789 17.58911,18.069784 12.40314,12.18989 15.23995,15.05606 15.61075,15.77232 0.38958,0.75255 0.45368,1.06509 0.45701,2.22812 0.003,1.12971 -0.0655,1.49832 -0.41679,2.23538 -1.09134,2.28973 -3.09436,3.28242 -5.32057,2.63683 z m 3.30265,-2.05133 c 1.20064,-1.23857 1.50623,-2.85792 0.81887,-4.33921 -0.2025,-0.43639 -5.12608,-5.40264 -16.00872,-16.14745 -17.02857,-16.812923 -16.80182,-16.567534 -18.20039,-19.696445 -0.78607,-1.75863 -1.26562,-3.39681 -2.07833,-7.09982 -0.35554,-1.619954 -0.72969,-3.249649 -0.83145,-3.621545 l -0.18502,-0.676174 -1.53277,3.570862 c -0.84302,1.963975 -1.56031,3.642481 -1.59398,3.730014 -0.0817,0.212341 1.54685,1.496845 2.72489,2.149254 1.38973,0.769647 1.405,0.865135 0.52332,3.272443 -0.41145,1.123415 -0.86663,2.171467 -1.01151,2.329006 -0.37945,0.412617 -0.77864,0.36271 -2.80088,-0.350173 -0.99322,-0.350132 -1.87072,-0.636604 -1.94999,-0.636604 -0.1409,0 -0.71255,0.953624 -0.6091,1.016112 0.0288,0.01739 0.59818,0.19859 1.26529,0.402658 1.70335,0.521044 3.91256,1.63177 5.58985,2.810394 0.78633,0.552557 2.59209,2.136723 4.01279,3.520368 l 2.5831,2.51572 -2.54122,-2.661175 c -3.01813,-3.160614 -3.40138,-3.858416 -2.77443,-5.051509 0.52198,-0.993337 1.5224,-1.356972 2.62073,-0.952583 0.50469,0.185818 30.13182,29.234327 30.13182,29.543337 0,0.10585 -0.39813,0.45251 -0.88474,0.77036 -1.0368,0.67724 -1.81873,1.65315 -1.96472,2.45211 -0.14275,0.78125 -0.34157,0.99986 -0.72547,0.79768 -0.46732,-0.24612 -0.38328,-0.13323 0.60305,0.81013 0.58475,0.55928 0.80482,0.70718 0.61629,0.41419 -0.38354,-0.59606 -0.36763,-1.8333 0.0322,-2.50493 0.8111,-1.36239 2.53627,-1.95345 3.7789,-1.29467 0.80722,0.42794 1.34327,1.48974 1.22163,2.41979 -0.24909,1.90452 -2.4104,3.14315 -4.03219,2.31081 -0.38753,-0.19889 -0.43331,-0.20071 -0.27321,-0.0109 0.3409,0.40423 1.52935,0.88811 2.18157,0.88824 0.53611,1.1e-4 0.73621,-0.10511 1.2938,-0.68032 z m -4.61317,-0.23468 c -0.31215,-0.32824 -1.47692,-1.56366 -2.58837,-2.74535 -17.87187,-19.0013 -26.27254,-27.616729 -28.6384,-29.370545 -1.98845,-1.474037 -4.68123,-2.788683 -6.82004,-3.329625 -2.55169,-0.645363 -2.34303,-0.751293 -3.29927,1.674929 l -0.81908,2.078211 0.37876,0.141714 c 0.50577,0.189233 1.53867,0.01192 1.65403,-0.283934 0.0508,-0.130204 0.007,-0.370486 -0.0963,-0.533958 -0.16023,-0.252487 -0.14059,-0.29722 0.13051,-0.29722 0.4039,0 0.76109,-0.594837 0.50722,-0.844672 -0.24022,-0.236397 -0.22232,-0.428537 0.0399,-0.428537 0.31851,0 0.61409,-0.710353 0.38811,-0.932731 -0.31436,-0.309365 -0.051,-0.333506 1.01946,-0.09347 2.75172,0.617018 6.09879,2.389442 8.39066,4.44323 0.39362,0.352729 6.86984,7.051138 14.39161,14.885358 15.66462,16.31533 15.585,16.23342 15.78156,16.23342 0.0809,0 -0.10824,-0.26857 -0.42038,-0.59682 z m 2.66968,-1.1618 c 0.92524,-0.79944 1.12986,-2.0092 0.46301,-2.7374 -0.33767,-0.36873 -0.7783,-0.35171 -1.3549,0.0523 -0.95141,0.66668 -1.24335,1.96785 -0.61726,2.75113 0.4366,0.54621 0.81995,0.52943 1.50915,-0.0661 z m -5.07884,-2.61804 c -0.39283,-0.3939 -0.75063,-0.71618 -0.79511,-0.71618 -0.0445,0 0.24055,0.32228 0.63339,0.71618 0.39283,0.3939 0.75063,0.71618 0.7951,0.71618 0.0445,0 -0.24054,-0.32228 -0.63338,-0.71618 z m -1.9407,-2.03919 c 0,-0.0274 -0.23652,-0.26014 -0.52561,-0.51724 l -0.5256,-0.46744 0.475,0.51724 c 0.44277,0.48214 0.57621,0.5904 0.57621,0.46744 z m -5.40758,-9.41269 c 0.14817,-0.22254 0.20598,-0.47957 0.13422,-0.59682 -0.35596,-0.58161 -7.79829,-7.94501 -8.11149,-8.02546 -0.49995,-0.12842 -0.87417,0.21608 -0.81478,0.75007 0.0365,0.32855 1.02838,1.41394 3.97548,4.35043 2.45576,2.44692 4.0447,3.91266 4.24155,3.91266 0.17312,0 0.43188,-0.1759 0.57502,-0.39088 z M 102.66033,94.662163 c 0.23562,-0.59177 0.4284,-1.14681 0.4284,-1.233421 0,-0.180852 -1.77178,-0.211939 -2.03336,-0.03568 -0.45784,0.308514 -0.38363,0.718822 0.29393,1.625277 0.37852,0.506392 0.73196,0.8755 0.78542,0.82024 0.0535,-0.05526 0.28998,-0.584648 0.52561,-1.176419 z M 101.35,90.088241 c 0.009,-0.1313 -0.0763,-0.822778 -0.19061,-1.536621 l -0.20785,-1.297893 -3.095822,-1.23821 c -1.702703,-0.681015 -3.328162,-1.331614 -3.61213,-1.445775 l -0.516305,-0.207567 0.29689,0.833855 c 0.505961,1.42106 0.947493,2.322753 1.691875,3.455138 0.958922,1.458749 1.703656,2.251637 3.245044,3.454868 l 1.290148,1.007107 0.54076,-1.393088 c 0.29741,-0.766197 0.54851,-1.500514 0.558,-1.631814 z m 10.423,0.942595 c 0.37339,-0.999859 0.68269,-1.931763 0.68734,-2.070894 0.009,-0.275364 -0.73184,-0.682711 -0.97402,-0.535418 -0.23118,0.140602 -0.17672,0.549659 0.0732,0.549659 0.12253,0 0.308,0.101051 0.41216,0.224557 0.23893,0.283307 -0.0614,0.503321 -0.59452,0.435535 -0.46204,-0.05875 -0.46856,0.187593 -0.0128,0.485373 0.44232,0.289017 0.25166,0.668734 -0.27098,0.53965 -0.24416,-0.06031 -0.40128,-0.01062 -0.46245,0.146256 -0.0539,0.138179 -0.002,0.237594 0.12506,0.237594 0.32166,0 0.58273,0.37596 0.42998,0.619186 -0.0822,0.130868 -0.26237,0.170002 -0.4758,0.10334 -0.27224,-0.08503 -0.3771,-0.02037 -0.50536,0.311632 -0.089,0.230408 -0.16186,0.452379 -0.16186,0.493267 0,0.113141 0.70571,0.366732 0.88949,0.319634 0.0889,-0.02279 0.46722,-0.85951 0.84061,-1.859371 z m -5.90479,1.226782 c 0.10174,-0.178856 0.1096,-0.337506 0.0197,-0.397878 -0.31209,-0.209643 -0.69677,-0.901932 -0.69677,-1.253959 0,-0.422885 1.27415,-3.762243 1.72988,-4.533757 0.23379,-0.395789 0.47851,-0.560718 1.02707,-0.692194 l 0.72014,-0.172602 1.66113,-3.885753 c 1.88639,-4.412695 1.85736,-4.068945 0.45841,-5.427461 -1.60821,-1.561721 -4.16339,-2.396843 -7.37561,-2.410607 -2.13366,-0.0091 -3.425122,0.212785 -4.92793,0.846829 l -0.803947,0.33919 3.795857,1.607985 c 2.08773,0.884392 3.82519,1.631156 3.86103,1.659477 0.0358,0.02832 0.19039,0.780886 0.34344,1.672369 l 0.27827,1.620877 -1.2511,2.797754 c -1.04787,2.343283 -3.39915,8.191279 -3.39757,8.450295 2.6e-4,0.0423 0.98784,0.0769 2.19462,0.0769 1.97477,0 2.21108,-0.02974 2.36336,-0.297466 z m 0.97466,-1.174682 c 0.032,-0.153183 -0.0473,-0.357681 -0.17614,-0.454439 -0.33237,-0.249535 -0.10357,-0.758027 0.29493,-0.655475 0.17133,0.04409 0.34702,-0.01224 0.39115,-0.125413 0.0446,-0.114285 -0.0647,-0.242723 -0.24621,-0.289435 -0.51179,-0.131708 -0.31284,-0.670961 0.23376,-0.633605 0.46771,0.03196 0.59976,-0.217743 0.19581,-0.370286 -0.13342,-0.05039 -0.24258,-0.227182 -0.24258,-0.392884 0,-0.228649 0.11695,-0.301275 0.48517,-0.301275 0.29196,0 0.48518,-0.08295 0.48518,-0.208308 0,-0.11457 0.0988,-0.34128 0.21956,-0.5038 0.20982,-0.282377 0.25109,-0.283569 0.92992,-0.02687 l 0.71036,0.268621 -0.72777,-0.635404 c -0.84998,-0.742114 -1.48072,-0.838747 -1.85042,-0.283494 -0.3569,0.536029 -1.5458,3.723804 -1.5458,4.144724 0,0.644416 0.72244,1.044885 0.84308,0.467343 z m -4.48169,-3.505073 c -0.0191,-0.02394 -0.15436,0.0016 -0.30051,0.05682 -0.26812,0.101248 -0.36048,0.55661 -0.1541,0.759708 0.098,0.09643 0.54399,-0.704622 0.45461,-0.816524 z"
         id="path7014"
         inkscape:connector-curvature="0" />
      <path
         style="fill:#979798;stroke-width:0.16043296"
         d="m 145.66297,131.867 c -1.98904,-0.54759 -0.61968,0.77465 -18.04954,-17.42863 -6.83085,-7.13395 -12.83269,-13.35679 -13.33744,-13.82853 -2.06644,-1.931326 -4.56032,-3.478565 -6.83284,-4.239198 -1.04392,-0.349407 -1.14251,-0.358146 -1.22318,-0.108409 -0.28371,0.878252 -1.10424,2.594774 -1.32985,2.781974 -0.14575,0.120939 -0.57893,0.308104 -0.96263,0.415922 -0.59168,0.166263 -0.825,0.155151 -1.53638,-0.07318 -0.46132,-0.148065 -0.91669,-0.329465 -1.01193,-0.40311 -0.0952,-0.07364 -0.56828,-0.791167 -1.05121,-1.594494 -0.760488,-1.265039 -1.083755,-1.624658 -2.414437,-2.685963 -2.850281,-2.273279 -3.865635,-3.596962 -5.489801,-7.156859 -0.90728,-1.988606 -0.948871,-2.306538 -0.432833,-3.308682 0.429339,-0.833777 0.941722,-1.311407 1.406825,-1.311407 0.145185,0 2.14498,0.752928 4.443989,1.673174 3.353497,1.342336 4.219437,1.633425 4.379357,1.472149 0.10964,-0.110564 0.49487,-0.953015 0.85606,-1.872113 0.63841,-1.624516 0.83274,-2.869319 0.55796,-3.574001 -0.0553,-0.141822 -1.75608,-1.077199 -3.779506,-2.078616 -4.283702,-2.120054 -4.296932,-2.13299 -3.780758,-3.696753 0.295715,-0.895878 0.327349,-0.9281 1.448294,-1.475249 1.920965,-0.937649 3.19815,-1.193205 5.88906,-1.17836 1.86987,0.01031 2.60717,0.08285 3.63882,0.357971 2.90923,0.775843 5.03862,2.272092 6.12266,4.302182 0.58388,1.093442 0.86176,2.083038 1.88313,6.706221 0.90253,4.085266 1.93883,6.58658 3.69245,8.912467 0.53017,0.703173 7.2908,7.504235 16.45333,16.551724 14.81498,14.62896 15.56973,15.40182 15.89767,16.27918 0.43792,1.1716 0.44044,2.39498 0.007,3.53432 -0.95221,2.50452 -3.06799,3.68055 -5.44453,3.02627 z m 3.26323,-1.93195 c 0.67231,-0.68123 1.22597,-2.02776 1.22098,-2.96949 -0.008,-1.48129 0.23518,-1.21968 -16.14705,-17.3813 -8.84537,-8.72625 -15.8765,-15.790408 -16.39512,-16.472146 -1.92829,-2.534765 -2.92192,-5.084746 -4.14032,-10.625427 -0.44559,-2.026325 -0.87203,-3.793008 -0.94764,-3.925963 -0.0976,-0.171583 -0.59176,0.82652 -1.70287,3.439269 l -1.56539,3.681006 0.68008,0.600464 c 0.37404,0.330255 1.23999,0.930453 1.92432,1.333772 0.68433,0.40332 1.28586,0.862366 1.33674,1.0201 0.13289,0.412054 -1.30658,4.338371 -1.71422,4.675718 -0.46284,0.383018 -0.59714,0.363208 -2.85469,-0.421033 l -1.98792,-0.69058 -0.23792,0.560348 c -0.13085,0.308193 -0.21877,0.575024 -0.19536,0.592961 0.0234,0.01794 0.56407,0.186221 1.20148,0.373963 1.62207,0.477766 4.15985,1.763509 5.74628,2.911298 0.73853,0.534323 2.64784,2.233456 4.24291,3.77585 l 2.90014,2.80435 -2.7937,-2.91977 c -3.37158,-3.523739 -3.73788,-4.152422 -3.14082,-5.390612 0.4872,-1.010357 1.65795,-1.428016 2.60858,-0.930602 0.24019,0.12568 7.13213,6.825294 15.31542,14.888034 12.86128,12.67183 14.8429,14.6855 14.61461,14.85107 -0.14525,0.10535 -0.60128,0.42364 -1.0134,0.70732 -0.79654,0.54829 -1.71278,1.79722 -1.71689,2.34031 -0.003,0.44711 -0.23299,0.76753 -0.50208,0.70068 -0.12277,-0.0305 -1.34065,-1.21924 -2.7064,-2.64165 -1.36575,-1.42241 -2.515,-2.58621 -2.55389,-2.58621 -0.0947,0 6.33509,6.82129 6.8763,7.29505 0.64857,0.56773 1.64415,0.97344 2.39828,0.97732 0.57106,0.003 0.77055,-0.0887 1.24956,-0.5741 z m -3.22291,-0.34567 c -0.95348,-0.59816 -1.13208,-0.92787 -1.13208,-2.08992 0,-0.93471 0.0591,-1.14621 0.46764,-1.67329 1.54624,-1.99496 4.68891,-1.22541 4.68891,1.14818 0,0.93874 -0.50634,1.88348 -1.29419,2.41473 -0.77443,0.5222 -2.06612,0.61697 -2.73028,0.2003 z m 1.1362,-0.98906 c 1.06845,-0.64983 1.33704,-2.17176 0.52441,-2.97146 -0.3639,-0.3581 -0.38169,-0.35979 -0.93171,-0.0881 -1.17797,0.58182 -1.66369,2.08039 -0.95975,2.96106 0.40231,0.50332 0.6698,0.5226 1.36705,0.0985 z m -2.13339,1.31551 c -0.27488,-0.24072 -3.36513,-3.48015 -6.8672,-7.19874 -11.24227,-11.93733 -19.10993,-20.10265 -22.23841,-23.079778 -3.28746,-3.128415 -6.25234,-4.823151 -9.89376,-5.65531 -1.94903,-0.445404 -1.82834,-0.526353 -2.77038,1.858129 -0.45444,1.150276 -0.8062,2.106487 -0.78168,2.124913 0.24208,0.181939 1.10721,0.350486 1.18262,0.230402 0.0517,-0.08231 0.23163,-0.149645 0.39985,-0.149645 0.46245,0 0.67945,-0.49493 0.36631,-0.835444 -0.2366,-0.257277 -0.22926,-0.278615 0.0958,-0.278615 0.46739,0 0.80505,-0.680801 0.51075,-1.02977 -0.17013,-0.201729 -0.15966,-0.243439 0.0611,-0.243439 0.35078,0 0.65227,-0.759196 0.41379,-1.041976 -0.13914,-0.164982 0.0341,-0.160192 0.84558,0.02338 1.70057,0.384713 2.56576,0.701026 4.21478,1.540918 3.11853,1.588364 3.32063,1.781147 19.06317,18.184735 8.06096,8.39945 14.89449,15.43286 15.18564,15.62981 0.72005,0.4871 0.81747,0.45055 0.21209,-0.0796 z m -6.52303,-8.04212 c 0,-0.0246 -0.45485,-0.47224 -1.01078,-0.99469 l -1.01078,-0.94993 0.96529,0.99469 c 0.89667,0.92399 1.05627,1.06753 1.05627,0.94993 z m -3.2345,-3.37698 c -0.39283,-0.3939 -0.75063,-0.71618 -0.79511,-0.71618 -0.0445,0 0.24055,0.32228 0.63339,0.71618 0.39283,0.3939 0.75063,0.71618 0.79511,0.71618 0.0445,0 -0.24055,-0.32228 -0.63339,-0.71618 z m -1.9407,-2.03919 c 0,-0.0274 -0.23652,-0.26015 -0.5256,-0.51724 l -0.52561,-0.46744 0.475,0.51724 c 0.44277,0.48214 0.57621,0.59039 0.57621,0.46744 z m 1.53345,-1.95943 c 0.1445,-0.14221 0.24067,-0.39167 0.2137,-0.55437 -0.027,-0.16269 -1.8196,-2.08745 -3.98363,-4.27724 -4.13854,-4.18781 -4.41059,-4.38714 -4.95111,-3.62773 -0.13847,0.19454 -0.25176,0.41388 -0.25176,0.48742 0,0.0735 1.79239,1.95548 3.9831,4.18209 4.1202,4.18775 4.38272,4.38714 4.9897,3.78983 z m -4.28277,-0.91558 c 0,-0.0331 -0.12736,-0.15838 -0.28302,-0.27852 -0.25651,-0.19796 -0.26223,-0.19233 -0.0611,0.0601 0.21127,0.26511 0.34408,0.34942 0.34408,0.21843 z m -5.17521,-5.40289 c 0,-0.0285 -0.20013,-0.22545 -0.44474,-0.43766 l -0.44474,-0.38583 0.39207,0.43766 c 0.36645,0.40907 0.49741,0.51065 0.49741,0.38583 z m -2.26415,-2.37982 c 0,-0.0244 -0.49124,-0.50783 -1.09164,-1.07427 l -1.09165,-1.02988 1.04655,1.07427 c 0.97207,0.99783 1.13674,1.14702 1.13674,1.02988 z M 102.74547,94.473316 c 0.27233,-0.695634 0.47917,-1.279956 0.45964,-1.298489 -0.0195,-0.01853 -0.53308,0.0059 -1.14123,0.05427 -0.97145,0.07729 -1.12749,0.135001 -1.28505,0.475305 -0.11442,0.247139 -0.12396,0.45942 -0.0264,0.586485 0.0841,0.109531 0.40373,0.533992 0.71022,0.943247 0.30648,0.409254 0.60908,0.690072 0.67243,0.624037 0.0634,-0.06603 0.33802,-0.68922 0.61035,-1.384856 z m -1.87646,-2.912927 0.5793,-1.551724 -0.25567,-1.385003 c -0.25058,-1.357466 -0.26723,-1.389665 -0.83746,-1.619407 -0.32,-0.128921 -1.925666,-0.77689 -3.568157,-1.43993 -1.642491,-0.66304 -3.006282,-1.205527 -3.030646,-1.205527 -0.02436,0 0.173692,0.5878 0.440124,1.306222 0.625833,1.687532 1.625832,3.397757 2.644153,4.522105 0.752596,0.830955 3.134707,2.904832 3.352616,2.918804 0.053,0.0034 0.35713,-0.692091 0.67574,-1.54554 z m 10.28094,1.114059 c 0.25775,-0.484842 1.31884,-3.488236 1.31884,-3.732961 0,-0.262864 -0.75075,-0.657897 -0.98247,-0.516963 -0.2672,0.162511 -0.15816,0.510334 0.18791,0.599392 0.5317,0.13683 0.33822,0.679851 -0.21922,0.615269 -0.52051,-0.0603 -0.58362,0.203989 -0.10847,0.454231 0.45133,0.237702 0.30726,0.551854 -0.25308,0.551854 -0.60108,0 -0.68306,0.294014 -0.14879,0.533572 0.34911,0.156532 0.38985,0.232171 0.22827,0.423764 -0.1185,0.140514 -0.3413,0.197503 -0.56049,0.143365 -0.28376,-0.07008 -0.38596,-0.0085 -0.46446,0.280053 -0.15169,0.557432 -0.13483,0.607124 0.2588,0.762828 0.51932,0.205416 0.57793,0.196393 0.74316,-0.114404 z m -5.28497,-0.411108 c 0.1285,-0.225939 0.09,-0.371259 -0.1706,-0.644257 -0.61461,-0.643815 -0.583,-1.144897 0.19696,-3.122354 0.39705,-1.006631 0.81637,-2.032559 0.93184,-2.27984 0.22438,-0.480543 0.89287,-0.903184 1.42857,-0.903184 0.40576,0 0.42674,-0.04063 2.28237,-4.420073 l 1.50196,-3.544742 -0.48978,-0.672765 c -1.07715,-1.479568 -3.23092,-2.616573 -5.78752,-3.055311 -2.31775,-0.397749 -4.20772,-0.283074 -6.420751,0.389582 -1.967069,0.597896 -2.018248,0.542744 2.120571,2.285185 2.04315,0.860163 3.78196,1.647624 3.86403,1.749914 0.0821,0.10229 0.24385,0.879025 0.35949,1.726078 l 0.21027,1.540096 -1.23987,2.782737 c -0.68192,1.530506 -1.73223,4.060275 -2.33401,5.621708 l -1.09414,2.83897 h 2.23734 c 2.00129,0 2.25485,-0.03078 2.40327,-0.291744 z m 0.95822,-1.088229 c 0.15484,-0.284716 0.13805,-0.381358 -0.0955,-0.549383 -0.37196,-0.267653 -0.19815,-0.754662 0.22245,-0.623293 0.19009,0.05937 0.33968,0.0066 0.39685,-0.140031 0.057,-0.146197 -0.0311,-0.273696 -0.23263,-0.336643 -0.50049,-0.15632 -0.31366,-0.641591 0.22536,-0.585342 0.48747,0.05087 0.58582,-0.187859 0.17142,-0.416081 -0.38825,-0.213818 -0.15244,-0.726188 0.28268,-0.614212 0.26572,0.06838 0.38309,-0.02804 0.57001,-0.468268 0.25294,-0.595739 0.40812,-0.608999 1.38798,-0.118601 0.70597,0.353323 0.69041,0.25587 -0.0575,-0.36007 -1.14415,-0.94224 -1.3408,-1.03852 -1.7831,-0.873033 -0.3199,0.11969 -0.543,0.52734 -1.15637,2.112982 -0.8239,2.129894 -0.89663,2.581449 -0.48742,3.026419 0.33362,0.362784 0.32858,0.363277 0.55576,-0.05444 z m -4.56166,-3.171825 c 0.15032,-0.424351 0.13936,-0.480062 -0.0783,-0.397878 -0.13919,0.05256 -0.2835,0.09557 -0.3207,0.09557 -0.0372,0 -0.0676,0.179045 -0.0676,0.397878 0,0.550754 0.25625,0.498274 0.46661,-0.09556 z"
         id="path7012"
         inkscape:connector-curvature="0" />
      <path
         style="fill:#626263;stroke-width:0.16043296"
         d="m 145.74535,131.86221 c -1.97822,-0.4846 -0.1206,1.3437 -25.46521,-25.06309 -5.9756,-6.22604 -7.17803,-7.375129 -8.94343,-8.546703 -1.5344,-1.018278 -4.6945,-2.390002 -5.03245,-2.184466 -0.0785,0.04775 -0.14625,0.207926 -0.15053,0.355943 -0.004,0.148017 -0.27781,0.805606 -0.60786,1.461309 -0.58378,1.159808 -0.6242,1.200167 -1.48817,1.486031 -0.87973,0.291076 -0.89687,0.290607 -1.81801,-0.04977 -0.79164,-0.292525 -0.99434,-0.454325 -1.36322,-1.088155 -1.006654,-1.729665 -1.581374,-2.432031 -2.763631,-3.377432 -1.824925,-1.459313 -2.89835,-2.504559 -3.588627,-3.494426 -1.05992,-1.519935 -2.917957,-5.391737 -2.917957,-6.080475 0,-0.482321 0.779101,-1.850709 1.21301,-2.130493 0.247052,-0.159298 0.554586,-0.221418 0.798239,-0.161238 0.217995,0.05384 2.184872,0.813727 4.370838,1.688632 2.185968,0.874905 4.037988,1.590736 4.115598,1.590736 0.0776,0 0.5143,-0.91515 0.9704,-2.033666 0.83724,-2.053183 0.84742,-2.115401 0.57013,-3.483387 -0.0541,-0.266813 -0.86427,-0.744532 -3.58773,-2.115476 -3.330157,-1.676345 -4.245633,-2.278976 -4.245633,-2.794779 0,-0.123135 0.150225,-0.619003 0.333833,-1.10193 0.312507,-0.821958 0.397877,-0.908127 1.336389,-1.348909 1.920708,-0.902081 3.348531,-1.197808 5.769131,-1.194892 3.72656,0.0045 6.52277,0.935817 8.47739,2.823553 1.59701,1.542356 1.97766,2.453997 3.00267,7.191131 1.12599,5.203879 2.13225,7.823717 3.91223,10.185676 0.46176,0.612732 7.83839,8.025196 16.39251,16.472146 12.42273,12.26709 15.63099,15.51825 15.94068,16.15385 0.57235,1.17466 0.54867,3.00719 -0.0545,4.2175 -1.15093,2.30944 -2.87955,3.18535 -5.17609,2.62278 z m 2.99777,-1.6708 c 0.22825,-0.17668 0.63833,-0.76106 0.9113,-1.29863 0.60003,-1.18165 0.65154,-2.24366 0.16076,-3.31382 -0.25391,-0.55363 -3.8254,-4.16585 -15.73567,-15.91512 -10.17316,-10.035637 -15.75591,-15.658503 -16.43364,-16.551726 -1.16625,-1.537064 -2.36015,-3.900717 -2.97438,-5.888595 -0.22989,-0.744031 -0.78848,-3 -1.24129,-5.013262 -0.45282,-2.013263 -0.87903,-3.716962 -0.94713,-3.785998 -0.0929,-0.0942 -2.4416,5.142132 -3.16695,7.060664 -0.10929,0.289055 1.62851,1.726781 2.86498,2.370279 1.13289,0.589596 1.156,0.752182 0.40785,2.869644 -0.81463,2.305636 -1.00999,2.679617 -1.45747,2.79014 -0.21692,0.05358 -1.18355,-0.197945 -2.42129,-0.630038 l -2.06022,-0.719217 -0.30485,0.584764 -0.30486,0.584764 1.314,0.420612 c 2.42829,0.777296 4.60629,1.933478 6.65092,3.530599 0.44474,0.347404 2.76465,2.576156 5.15536,4.95278 l 4.34674,4.32114 -3.7807,-3.98008 c -2.07939,-2.18905 -4.12127,-4.347042 -4.53752,-4.795544 -1.29925,-1.399913 -1.34692,-2.60828 -0.14225,-3.605813 0.55641,-0.460739 1.0113,-0.529652 1.7376,-0.263231 0.41263,0.151361 30.29354,29.365698 30.29354,29.617758 0,0.058 -0.32029,0.29013 -0.71177,0.5159 -1.03919,0.59932 -1.97354,1.71686 -2.217,2.65167 -0.11283,0.43325 -0.29473,0.78772 -0.40421,0.78772 -0.10948,0 -2.93892,-2.86472 -6.28765,-6.36605 -3.34872,-3.50132 -6.12291,-6.36604 -6.16487,-6.36604 -0.042,0 1.94611,2.13177 4.41795,4.73728 2.47183,2.6055 5.63796,5.95364 7.03584,7.44031 2.43113,2.58555 2.76406,2.88975 3.68481,3.36689 0.62564,0.32421 1.825,0.26728 2.31207,-0.10975 z m -2.95574,-0.59413 c -2.20677,-1.09108 -1.41442,-4.44083 1.15874,-4.89872 1.34766,-0.23981 2.55146,0.64839 2.68132,1.97838 0.0427,0.43702 0.0323,0.97198 -0.023,1.18881 -0.24515,0.96123 -1.67764,1.99924 -2.7691,2.00655 -0.26685,0.002 -0.73845,-0.12198 -1.04799,-0.27502 z m 2.25448,-0.77729 c 1.02483,-0.59575 1.31258,-2.06541 0.56272,-2.87407 -0.32834,-0.35409 -0.37857,-0.37457 -0.24258,-0.0989 0.39648,0.80375 0.13168,2.04411 -0.59683,2.79561 -0.48057,0.49572 -0.38089,0.55962 0.27669,0.17737 z m -1.19355,-0.19897 c 0.90386,-0.54239 1.27755,-1.80676 0.80166,-2.71238 -0.31442,-0.59834 -0.59059,-0.67813 -1.23856,-0.35784 -1.04592,0.51698 -1.57576,1.87248 -1.08822,2.78398 0.35728,0.66797 0.76232,0.74399 1.52512,0.28624 z m -2.94207,0.41948 c -0.71761,-0.72215 -3.73261,-3.89125 -6.70002,-7.04244 -14.28964,-15.17467 -22.2486,-23.267702 -24.40284,-24.813917 -2.50184,-1.795704 -5.53029,-3.059731 -8.20244,-3.423566 l -0.83281,-0.113394 -0.83952,2.131845 c -0.46174,1.172514 -0.81473,2.151571 -0.78444,2.175681 0.21352,0.169945 1.11526,0.364712 1.18374,0.255678 0.0465,-0.07409 0.21618,-0.100842 0.37701,-0.05945 0.3293,0.08474 0.7872,-0.656303 0.50979,-0.825024 -0.26722,-0.162525 -0.17041,-0.394168 0.16474,-0.394168 0.39668,0 0.61401,-0.693606 0.32479,-1.03655 -0.16238,-0.192539 -0.15173,-0.236659 0.0571,-0.236659 0.31001,0 0.65093,-0.573007 0.52819,-0.887768 -0.1194,-0.306205 0.24497,-0.289396 1.51938,0.07009 2.95711,0.834146 5.91727,2.568582 8.35903,4.897776 0.81334,0.775836 7.66816,7.868246 15.23294,15.760906 7.56479,7.89265 13.91857,14.46361 14.11951,14.60212 0.84768,0.58429 0.60603,0.16676 -0.61417,-1.06116 z m -0.22451,-3.04918 c 0,-0.36164 0.92635,-1.47878 1.72195,-2.0766 l 0.77108,-0.57939 -13.98237,-13.76623 c -7.6903,-7.57143 -14.32027,-14.049635 -14.73327,-14.396009 -0.9998,-0.838515 -1.60103,-0.954571 -2.14942,-0.414908 -0.54152,0.5329 -0.56589,1.460549 -0.0555,2.112308 0.33528,0.42813 7.30144,7.768419 9.03882,9.524249 l 0.78096,0.78926 -0.0961,-0.58294 c -0.0829,-0.50272 -0.0283,-0.64964 0.39655,-1.06777 0.37371,-0.36776 0.64213,-0.48624 1.11159,-0.49064 0.59802,-0.006 0.75683,0.1327 4.70542,4.09814 2.24757,2.25717 4.12945,4.26509 4.18195,4.46204 0.25152,0.94366 -0.4399,1.78915 -1.46607,1.79276 -0.64405,0.002 -0.72883,-0.0698 -4.35501,-3.70027 -3.24012,-3.24398 -3.3801,-3.36746 -1.13015,-0.997 9.54644,10.05781 14.98331,15.66649 15.11118,15.58872 0.0816,-0.0496 0.14841,-0.18272 0.14841,-0.29572 z m -9.0623,-11.54248 c 0.0921,-0.16932 0.16742,-0.42686 0.16742,-0.57232 0,-0.14546 -1.79574,-2.04805 -3.99053,-4.22797 -2.86396,-2.84454 -4.09344,-3.96349 -4.35503,-3.96349 -0.43356,0 -0.87277,0.39054 -0.87277,0.77606 0,0.15173 1.78929,2.0803 3.9762,4.28571 3.37695,3.40553 4.04636,4.00985 4.44175,4.00985 0.29475,0 0.52697,-0.11294 0.63296,-0.30784 z m -3.55226,-0.0545 c 0,-0.0242 -0.52763,-0.54346 -1.17251,-1.15385 l -1.1725,-1.10979 1.12774,1.15385 c 1.04744,1.07169 1.21727,1.22653 1.21727,1.10979 z m -3.55795,-3.696 c -0.66266,-0.6565 -1.24123,-1.19363 -1.2857,-1.19363 -0.0445,0 0.46131,0.53713 1.12397,1.19363 0.66267,0.6565 1.24124,1.19363 1.28571,1.19363 0.0445,0 -0.46132,-0.53713 -1.12398,-1.19363 z m -1.45553,-1.55546 c 0,-0.0239 -0.6004,-0.61478 -1.33423,-1.31299 l -1.33423,-1.26948 1.29001,1.313 c 1.19812,1.21947 1.37845,1.38555 1.37845,1.26947 z M 101.48078,96.389514 c -0.19308,-0.307434 -0.63771,-0.900352 -0.98808,-1.317597 -0.36045,-0.429251 -0.602348,-0.866163 -0.557148,-1.00631 0.05375,-0.166653 -0.330075,-0.567466 -1.173224,-1.22515 -2.658162,-2.073457 -4.12018,-4.036536 -5.293946,-7.108289 -0.246423,-0.644889 -0.388592,-0.853356 -0.458937,-0.672957 -0.123689,0.317199 0.301437,1.410722 1.35276,3.479617 1.294175,2.546801 1.728493,3.05551 4.586813,5.372457 0.963937,0.781365 1.654902,1.499126 2.090622,2.171705 0.35795,0.552535 0.68263,0.973307 0.72151,0.935052 0.0389,-0.03826 -0.0873,-0.321094 -0.28037,-0.628528 z m 1.24545,-1.792682 c 0.28984,-0.756751 0.497,-1.405412 0.46036,-1.441468 -0.0366,-0.03605 -0.57928,-0.01584 -1.20587,0.04492 -1.07901,0.104631 -1.14449,0.133958 -1.23838,0.554612 -0.0805,0.360883 0.0316,0.610652 0.59803,1.332433 0.38343,0.488562 0.73354,0.887647 0.77801,0.886854 0.0445,-7.96e-4 0.31801,-0.620601 0.60785,-1.377351 z m -1.83346,-3.01729 0.59609,-1.532574 -0.29171,-1.430179 -0.2917,-1.43018 -3.539237,-1.419063 c -1.946579,-0.780484 -3.568714,-1.390052 -3.604745,-1.354595 -0.09238,0.09091 0.629394,1.938684 1.16223,2.975357 0.685952,1.334573 1.57239,2.53016 2.611368,3.522095 0.971815,0.927812 2.484564,2.173318 2.661684,2.191469 0.055,0.0056 0.36816,-0.679416 0.69602,-1.52233 z m 10.23556,1.174481 c 0.0851,-0.109416 0.45351,-1.036131 0.81875,-2.059365 l 0.66408,-1.860427 -0.50881,-0.317032 c -0.27985,-0.174368 -0.5666,-0.281887 -0.63723,-0.238934 -0.25439,0.154721 -0.12143,0.660591 0.19504,0.742032 0.1779,0.04578 0.32345,0.205497 0.32345,0.354927 0,0.210567 -0.10775,0.256127 -0.47897,0.202511 -0.60265,-0.08704 -0.76796,0.248763 -0.23918,0.485857 0.51108,0.229155 0.35561,0.684343 -0.21334,0.62463 -0.508,-0.05332 -0.66585,0.289184 -0.20029,0.434594 0.50541,0.157856 0.3501,0.649626 -0.18566,0.587887 -0.34437,-0.03968 -0.44261,0.03233 -0.53425,0.391639 -0.0833,0.326462 -0.0386,0.4933 0.17285,0.645443 0.35945,0.258649 0.62575,0.260667 0.82356,0.0062 z m -5.28099,-0.382098 c 0.13255,-0.343095 0.10384,-0.484276 -0.15374,-0.755968 -0.61088,-0.644333 -0.57545,-1.03522 0.29808,-3.288617 0.45311,-1.16888 0.98177,-2.29067 1.1748,-2.492867 0.19302,-0.202197 0.61634,-0.409393 0.9407,-0.460435 l 0.58975,-0.0928 1.66323,-3.913825 1.66324,-3.913826 -0.29103,-0.531795 c -0.68493,-1.251611 -2.76495,-2.562444 -5.00482,-3.154062 -1.53072,-0.40431 -4.29457,-0.481921 -5.88294,-0.165198 -1.633257,0.325673 -3.290439,1.004284 -2.931077,1.200267 0.133423,0.07276 1.807277,0.790187 3.719677,1.594272 1.9124,0.804085 3.55446,1.559064 3.64903,1.67773 0.0946,0.118667 0.26579,0.888487 0.38051,1.710712 l 0.20857,1.494953 -1.2978,2.931741 c -0.71378,1.612457 -1.69735,3.970201 -2.18569,5.239432 -0.48835,1.269231 -0.96671,2.508349 -1.06303,2.753594 l -0.17512,0.445904 1.33341,-0.09094 c 1.03424,-0.07053 2.78606,0.04809 3.15682,0.213757 0.0244,0.01092 0.11778,-0.169992 0.20743,-0.40203 z m 3.61223,-0.307311 c 0.20206,-0.518168 0.0746,-0.657231 -0.82908,-0.90476 -0.70131,-0.192096 -0.95684,-0.208172 -1.04873,-0.06598 -0.26723,0.413516 -0.1044,0.683432 0.56088,0.929727 0.90697,0.335769 1.19846,0.344847 1.31693,0.04101 z m -2.59168,-0.902103 c 0.0631,-0.232338 0.006,-0.425266 -0.16315,-0.549383 -0.35539,-0.261123 -0.15922,-0.737085 0.25099,-0.608962 0.4519,0.141143 0.59305,-0.219411 0.19366,-0.494698 -0.4792,-0.330304 -0.42398,-0.535285 0.1442,-0.535285 0.53356,0 0.63393,-0.255742 0.21788,-0.555128 -0.33318,-0.23975 -0.13432,-0.604793 0.26203,-0.480998 0.21199,0.06621 0.38245,-0.0617 0.62801,-0.471271 l 0.33704,-0.562151 0.89477,0.389411 c 0.49212,0.214176 0.89477,0.370048 0.89477,0.346382 0,-0.140468 -2.10366,-1.690118 -2.29435,-1.690118 -0.50692,0 -0.8209,0.485794 -1.59159,2.462545 -0.44225,1.134323 -0.80409,2.108903 -0.80409,2.165734 0,0.167782 0.65875,0.942013 0.8015,0.942013 0.0721,0 0.17487,-0.161141 0.22833,-0.358091 z m 3.06173,-0.676392 c -0.0414,-0.203313 -1.82741,-0.731758 -1.82741,-0.540704 0,0.07855 -0.0182,0.190076 -0.0404,0.247826 -0.054,0.140288 1.16822,0.510797 1.57682,0.477996 0.1779,-0.01428 0.30886,-0.09759 0.29102,-0.185118 z m 0.43674,-1.032583 c 0,-0.07615 -0.39327,-0.250973 -0.87394,-0.388485 -1.05358,-0.301408 -1.06676,-0.302013 -1.06676,-0.04902 0,0.110551 0.38208,0.312664 0.84906,0.449141 0.85139,0.248821 1.09164,0.246261 1.09164,-0.01163 z m -8.12452,-1.367506 c 0.15232,-0.488413 0.14275,-0.556646 -0.067,-0.477454 -0.13457,0.05082 -0.27511,0.0924 -0.31231,0.0924 -0.0372,0 -0.0676,0.214854 -0.0676,0.477454 0,0.649314 0.23045,0.601671 0.44691,-0.0924 z m 8.44797,0.494362 c 0,-0.08702 -0.78521,-0.499727 -1.3598,-0.714709 -0.29283,-0.10956 -0.41395,-0.08935 -0.48002,0.08008 -0.0626,0.160391 0.1343,0.294029 0.67357,0.457281 0.81178,0.245752 1.16625,0.299655 1.16625,0.177346 z m -5.70012,-8.813156 -0.20699,-1.312659 -3.7176,-1.583689 c -2.044683,-0.871029 -3.728013,-1.583693 -3.740734,-1.583699 -0.01272,-5e-6 -0.06529,0.108111 -0.116818,0.240258 -0.07144,0.183196 0.787052,0.673943 3.614232,2.066045 2.04224,1.005595 3.78153,1.961125 3.87178,2.127068 0.0901,0.16571 0.21474,0.614474 0.27694,0.997255 0.0622,0.38278 0.13853,0.62084 0.16964,0.529022 0.0311,-0.09182 -0.0366,-0.757639 -0.15045,-1.479601 z"
         id="path7010"
         inkscape:connector-curvature="0" />
      <path
         style="fill:#313232;stroke-width:0.16043296"
         d="m 144.89466,131.59056 c -1.2327,-0.41836 -0.44139,0.36884 -17.4153,-17.32471 -13.83598,-14.422575 -14.77548,-15.335867 -17.15289,-16.674437 -1.0304,-0.580152 -2.92205,-1.371225 -3.6607,-1.530879 -0.4141,-0.0895 -0.50426,-0.05936 -0.50426,0.168556 0,0.424959 -1.1273,2.671308 -1.43028,2.850082 -0.77841,0.459316 -1.41892,0.514956 -2.42592,0.210742 -0.8116,-0.24518 -1.04142,-0.393411 -1.25869,-0.811817 -0.87757,-1.690027 -1.702496,-2.6657 -3.496428,-4.135391 C 96.530176,93.50705 95.423394,92.496405 95.090676,92.096829 94.278623,91.121598 92.946869,88.72198 92.176194,86.84538 l -0.629201,-1.532109 0.474375,-0.978673 c 0.342681,-0.706977 0.606716,-1.033552 0.951081,-1.176352 0.570171,-0.236437 0.09026,-0.385889 4.981732,1.551388 2.201599,0.871948 4.084579,1.558574 4.184379,1.525833 0.0998,-0.03274 0.54132,-0.947353 0.98114,-2.032472 0.7201,-1.776649 0.78872,-2.053103 0.68969,-2.778598 -0.0605,-0.443109 -0.18525,-0.897233 -0.27725,-1.009165 -0.092,-0.111932 -1.70312,-0.96069 -3.580272,-1.886129 -1.877149,-0.925439 -3.552308,-1.814452 -3.722574,-1.975584 -0.3864,-0.365669 -0.376839,-1.238249 0.02235,-2.039674 0.335582,-0.673727 1.069305,-1.118407 2.793965,-1.693311 4.813351,-1.6045 11.057311,-0.176811 13.490071,3.08452 0.88661,1.188586 1.2844,2.314618 2.03063,5.748174 1.2545,5.772262 2.21906,8.326343 4.05703,10.742705 0.46607,0.612732 7.84788,8.025197 16.40403,16.472147 17.32548,17.10435 16.31843,15.98057 16.32989,18.22281 0.01,1.89412 -1.16877,3.85423 -2.73933,4.55633 -0.87799,0.39249 -2.47125,0.36825 -3.72327,-0.0567 z m 3.99299,-1.50476 c 0.69063,-0.65114 1.29877,-1.98581 1.30995,-2.87494 0.0211,-1.67968 0.7435,-0.89069 -15.48261,-16.91042 -8.28978,-8.18435 -15.53281,-15.414026 -16.09562,-16.065949 -2.66746,-3.08986 -3.70911,-5.465091 -5.01724,-11.440632 -0.37047,-1.692282 -0.78649,-3.446924 -0.92449,-3.899205 -0.212,-0.69481 -0.27293,-0.772969 -0.39289,-0.504026 -0.0781,0.175066 -0.81661,1.895378 -1.64116,3.822915 l -1.49918,3.504612 0.87352,0.696544 c 0.48044,0.383099 1.26715,0.929803 1.74826,1.214898 1.64062,0.972208 1.62023,0.863207 0.65279,3.490391 -0.48531,1.31791 -0.81831,1.981321 -1.09747,2.186424 -0.3961,0.291025 -0.42227,0.287124 -2.25477,-0.336085 -1.01971,-0.346792 -1.97682,-0.677554 -2.1269,-0.735027 -0.20423,-0.0782 -0.35386,0.0517 -0.59471,0.516276 l -0.32181,0.620772 1.40332,0.447584 c 2.59538,0.827779 4.8239,2.085554 7.23449,4.083147 1.88371,1.560975 10.23526,10.174641 24.59621,25.368181 3.3922,3.58886 6.40074,6.6585 6.68565,6.82143 1.21421,0.69432 2.20337,0.69201 2.94466,-0.007 z m -3.09153,-0.55884 c -2.3786,-1.21988 -1.23501,-4.74524 1.53863,-4.74316 1.54063,0.001 2.42436,0.95606 2.29587,2.4808 -0.16337,1.93863 -2.16408,3.11905 -3.8345,2.26236 z m 2.08574,-0.52385 c 1.03658,-0.52751 1.51734,-1.83572 1.02092,-2.77807 -0.43008,-0.81643 -0.70333,-0.82045 -0.49359,-0.007 0.2167,0.84014 -0.0332,1.7105 -0.70839,2.46727 -0.54547,0.61137 -0.51174,0.67062 0.18106,0.31807 z m -0.99834,-0.34592 c 0.98516,-0.61189 1.32506,-2.21464 0.63668,-3.00219 -0.48165,-0.55104 -1.0419,-0.42183 -1.81306,0.41817 -0.48741,0.53092 -0.56989,0.73276 -0.56989,1.3946 0,0.54519 0.10037,0.8994 0.33971,1.19882 0.3617,0.45251 0.66613,0.45048 1.40656,-0.009 z m -17.68623,-16.21945 c -7.91092,-8.27807 -14.5078,-15.278733 -14.65973,-15.557031 -0.4182,-0.76603 -0.3712,-1.739152 0.11124,-2.303381 0.22057,-0.257962 0.61656,-0.556873 0.87998,-0.664246 1.10051,-0.448593 0.6923,-0.812972 16.54917,14.771998 8.16105,8.0211 14.83828,14.70486 14.83828,14.8528 0,0.14793 -0.15821,0.31838 -0.35157,0.37877 -0.97664,0.30504 -2.54666,2.27931 -2.55593,3.21403 -0.002,0.19695 -0.099,0.35809 -0.21575,0.35809 -0.11671,0 -6.68477,-6.77296 -14.59569,-15.05103 z m 14.61364,13.41973 c 0.32709,-0.72286 0.89871,-1.37626 1.8115,-2.07063 l 0.56604,-0.4306 -14.4744,-14.25695 c -7.96091,-7.84133 -14.67091,-14.359784 -14.9111,-14.485462 -0.6531,-0.341727 -1.07269,-0.279546 -1.5973,0.236707 -0.54161,0.532996 -0.59295,0.996928 -0.18971,1.714437 0.21207,0.377347 28.28504,29.937878 28.45604,29.963888 0.0181,0.003 0.17059,-0.29937 0.33893,-0.67139 z m -14.41146,-14.40318 c -2.27913,-2.229 -4.12851,-4.16886 -4.26009,-4.46849 -0.20867,-0.47522 -0.20274,-0.58932 0.0579,-1.11323 0.32162,-0.64653 0.89647,-0.92862 1.55893,-0.765 0.45286,0.11185 8.10593,7.61527 8.48597,8.32003 0.45802,0.84936 -0.29092,1.96568 -1.31876,1.96568 -0.43214,0 -1.01744,-0.50962 -4.52394,-3.93899 z m 5.02794,3.21379 c 0.81491,-0.5617 0.61556,-0.83762 -3.63896,-5.03672 -3.28184,-3.23908 -4.07785,-3.9463 -4.44175,-3.9463 -0.51219,0 -0.85357,0.48053 -0.71718,1.00952 0.0935,0.36277 8.0079,8.22125 8.27972,8.22125 0.0873,0 0.32048,-0.11149 0.51817,-0.24775 z m 9.74336,14.61114 c -0.67712,-0.67838 -4.06617,-4.24022 -7.53124,-7.9152 -12.10861,-12.84215 -20.57261,-21.562303 -22.35424,-23.030748 -1.70661,-1.406607 -3.00909,-2.246346 -4.7728,-3.077124 -1.51282,-0.7126 -3.62556,-1.378662 -4.99228,-1.573869 l -0.7518,-0.107379 -0.82502,2.088254 c -0.45375,1.148539 -0.82501,2.147486 -0.82501,2.219881 0,0.227811 0.96523,0.474118 1.46924,0.374922 0.59626,-0.117355 0.87565,-0.562085 0.63319,-1.007912 -0.14449,-0.265689 -0.12299,-0.318303 0.13008,-0.318303 0.45938,0 0.72172,-0.685063 0.38807,-1.013398 -0.2442,-0.240314 -0.23845,-0.259811 0.0766,-0.259811 0.3526,0 0.64939,-0.647771 0.44553,-0.972378 -0.0666,-0.106088 0.11304,-0.123625 0.52066,-0.05082 2.89862,0.517685 6.52175,2.462021 9.22089,4.948352 0.45964,0.423393 5.84193,5.997923 11.96065,12.387843 16.33461,17.05861 17.04763,17.79197 17.67787,18.18221 0.31735,0.1965 0.61834,0.35764 0.66888,0.35809 0.0505,4.8e-4 -0.46211,-0.55423 -1.13923,-1.23261 z M 101.57188,96.491455 c -0.13349,-0.254027 -0.55482,-0.84973 -0.9363,-1.323788 -0.38147,-0.474055 -0.674456,-0.975127 -0.651076,-1.113493 0.02589,-0.153204 -0.585067,-0.757028 -1.562486,-1.544247 -2.379028,-1.916085 -4.024119,-4.230003 -5.024204,-7.066842 -0.271448,-0.769988 -0.307888,-0.809156 -0.407718,-0.438237 -0.133782,0.497067 0.245368,1.48582 1.482232,3.865388 1.029631,1.980879 2.01041,3.106633 4.306498,4.943067 1.039715,0.831575 1.696124,1.50953 2.207484,2.279935 0.71223,1.073034 1.06693,1.314249 0.58557,0.398217 z m 1.17777,-1.867405 c 0.27463,-0.700265 0.49966,-1.326923 0.50007,-1.392573 9e-4,-0.145697 -0.67232,-0.153374 -1.66836,-0.01902 -0.61032,0.08232 -0.76866,0.17347 -0.88185,0.507637 -0.11642,0.343698 -0.0227,0.560592 0.60003,1.389033 0.40589,0.539957 0.78586,0.938179 0.84438,0.884938 0.0585,-0.05324 0.3311,-0.669745 0.60573,-1.37001 z m -1.84332,-2.993504 0.59418,-1.561144 -0.25099,-1.443455 c -0.13805,-0.793901 -0.27194,-1.457627 -0.29753,-1.474948 -0.0256,-0.01732 -1.429293,-0.577174 -3.11932,-1.244118 -1.690027,-0.666944 -3.34491,-1.324554 -3.677517,-1.461355 l -0.604741,-0.24873 0.339535,0.916545 c 1.11219,3.002262 2.611306,5.134403 4.876409,6.935549 0.820705,0.652599 1.504244,1.176703 1.518984,1.164673 0.0147,-0.01203 0.29418,-0.724388 0.62099,-1.583017 z m 10.22996,1.123477 c 0.0894,-0.109416 0.43551,-0.950928 0.76903,-1.870026 0.33353,-0.919098 0.63978,-1.757685 0.68057,-1.863527 0.0642,-0.166644 -0.82299,-0.839787 -1.10903,-0.841448 -0.0563,-3.19e-4 -0.13624,0.173419 -0.17756,0.386105 -0.0591,0.304202 0.006,0.406708 0.3046,0.480486 0.20884,0.05158 0.37971,0.2088 0.37971,0.349373 0,0.197341 -0.10723,0.234484 -0.47054,0.162977 -0.57165,-0.112508 -0.88252,0.344057 -0.33092,0.486008 0.515,0.13253 0.3296,0.612904 -0.21232,0.550121 -0.32514,-0.03767 -0.44174,0.01878 -0.44174,0.213839 0,0.14576 0.14555,0.302473 0.32345,0.348254 0.53283,0.13712 0.40573,0.571579 -0.14399,0.492182 -0.41293,-0.05964 -0.48694,-0.005 -0.63474,0.468943 -0.15013,0.481372 -0.13119,0.550784 0.18442,0.675968 0.49735,0.197273 0.69284,0.188543 0.87906,-0.03925 z m -5.27685,-0.340699 c 0.14579,-0.314884 0.11346,-0.463939 -0.18747,-0.864497 -0.48587,-0.646716 -0.38876,-1.36984 0.47762,-3.556613 0.8342,-2.105565 1.14262,-2.519358 1.87781,-2.519358 0.37575,0 0.60104,-0.09642 0.71503,-0.306021 0.0915,-0.168311 0.88668,-1.99464 1.76698,-4.058508 l 1.60055,-3.752488 -0.44613,-0.60606 c -1.09034,-1.481222 -2.85639,-2.511367 -5.25973,-3.068025 -2.05681,-0.476395 -5.08154,-0.378959 -6.95713,0.224111 -2.264576,0.728144 -2.344568,0.623477 1.81835,2.379259 2.02579,0.854412 3.77229,1.609118 3.88112,1.677125 0.10883,0.06801 0.31328,0.840668 0.45432,1.717025 l 0.25645,1.593376 -0.91246,1.98074 c -0.70447,1.529219 -3.79672,9.129534 -3.79672,9.331785 0,0.02199 0.9279,0.06236 2.062,0.08972 1.1341,0.02736 2.15452,0.06531 2.26762,0.08433 0.11309,0.01902 0.28489,-0.136631 0.38179,-0.345899 z m 3.76188,-0.667067 c 0.0911,-0.293882 -0.0101,-0.362247 -0.8947,-0.604263 -1.02804,-0.281271 -1.16452,-0.249793 -1.33492,0.307886 -0.0874,0.285988 0.0273,0.367742 0.91175,0.649677 1.04925,0.33449 1.10972,0.318279 1.31787,-0.3533 z m -2.83698,-1.215222 c -0.42933,-0.163821 -0.36923,-0.442794 0.0954,-0.442794 0.57033,0 0.68505,-0.315253 0.23601,-0.648568 -0.34559,-0.256531 -0.35651,-0.297758 -0.10412,-0.393067 0.15508,-0.05856 0.39113,-0.06525 0.52455,-0.01487 0.13343,0.05038 0.24259,0.0639 0.24259,0.03004 0,-0.03386 0.0405,-0.165436 0.09,-0.292391 0.057,-0.146265 -0.0381,-0.26379 -0.25963,-0.320804 -0.48104,-0.123793 -0.30257,-0.519588 0.20999,-0.465699 0.32945,0.03464 0.44448,-0.052 0.58109,-0.437666 0.20773,-0.586409 0.37266,-0.593524 1.58214,-0.06825 0.52252,0.226928 0.91365,0.376518 0.86918,0.332422 -0.0445,-0.04409 -0.5903,-0.480028 -1.21294,-0.968738 -1.19078,-0.934645 -1.64873,-1.070778 -2.05819,-0.61183 -0.2776,0.311152 -1.74235,4.025607 -1.74235,4.418421 0,0.138172 0.19444,0.442569 0.4321,0.67644 l 0.4321,0.425222 0.19073,-0.551818 c 0.1693,-0.489822 0.1571,-0.564653 -0.10865,-0.666054 z m 3.22453,0.0096 c 0.0329,-0.166649 -0.23218,-0.314873 -0.88949,-0.497428 -0.86951,-0.241493 -0.95079,-0.241232 -1.13934,0.0037 -0.17949,0.233126 -0.1055,0.288261 0.63824,0.475569 0.4627,0.116528 0.87701,0.247038 0.92069,0.290021 0.1393,0.137084 0.42144,-0.02612 0.4699,-0.271817 z m 0.41167,-0.998389 c 0.0648,-0.166236 -0.18144,-0.307913 -0.91262,-0.525047 -0.89232,-0.264989 -1.01232,-0.270526 -1.10167,-0.05085 -0.0762,0.187378 0.0984,0.309619 0.72776,0.509444 1.05875,0.336166 1.17893,0.342373 1.28653,0.06645 z m -8.21304,-1.279155 c 0.33403,-0.786723 0.30385,-0.904791 -0.17623,-0.689533 -0.24926,0.111764 -0.37633,0.271855 -0.32345,0.407483 0.0479,0.122862 0.0871,0.360769 0.0871,0.528677 0,0.459403 0.15117,0.369038 0.41257,-0.246632 z m 8.48231,0.334405 c 0,-0.265976 -1.66969,-0.980459 -1.74838,-0.748155 -0.11628,0.343294 -0.0281,0.416675 0.80652,0.671545 0.47355,0.144601 0.87919,0.269933 0.90143,0.278514 0.0222,0.0086 0.0404,-0.08228 0.0404,-0.201904 z m -5.65625,-8.897648 c -0.0997,-0.632109 -0.23258,-1.199849 -0.29537,-1.261643 -0.0628,-0.0618 -1.74072,-0.802982 -3.72872,-1.647082 -2.740912,-1.163783 -3.65937,-1.489954 -3.799987,-1.349484 -0.26344,0.263164 -0.09542,0.36472 3.944797,2.384309 l 3.53742,1.768256 0.20566,0.98971 c 0.27032,1.300866 0.37429,0.626008 0.1362,-0.884066 z"
         id="path7008"
         inkscape:connector-curvature="0" />
      <path
         style="fill:#010101;stroke-width:0.16043296"
         d="m 145.05639,131.56128 c -0.53369,-0.20193 -1.08596,-0.41628 -1.22726,-0.47633 -0.14129,-0.06 -1.23294,-1.12909 -2.42587,-2.37565 -10.66631,-11.14574 -26.93576,-28.02256 -27.58259,-28.6123 -1.76552,-1.609681 -4.26247,-3.117255 -6.31279,-3.81144 -1.08093,-0.36598 -1.34637,-0.383696 -1.34637,-0.08987 0,0.120371 -0.25101,0.760891 -0.55779,1.423375 -0.67784,1.463739 -1.09493,1.779917 -2.34615,1.778509 -1.07631,-0.0013 -1.74067,-0.300506 -2.18436,-0.984059 -0.18122,-0.279188 -0.64559,-1.003663 -1.03194,-1.609945 -0.393515,-0.617523 -1.033661,-1.351337 -1.455529,-1.668501 -1.543956,-1.16077 -3.119109,-2.606781 -3.763911,-3.455319 -0.734834,-0.967019 -2.237312,-3.818343 -2.836057,-5.382119 l -0.384975,-1.005462 0.334078,-0.743219 c 0.44389,-0.987516 0.92065,-1.463365 1.466166,-1.463365 0.374805,0 6.739878,2.432834 8.102578,3.096933 0.63818,0.311016 0.81187,0.103612 1.65474,-1.975966 0.75203,-1.855489 0.81338,-2.168748 0.63397,-3.237173 l -0.10147,-0.604269 -3.694748,-1.828573 c -2.296749,-1.136688 -3.763772,-1.955501 -3.877179,-2.164031 -0.21168,-0.389232 -0.116855,-1.327219 0.19984,-1.976785 0.654467,-1.342361 5.051657,-2.46454 8.341637,-2.128816 3.10488,0.316835 5.19842,1.141866 6.9207,2.727328 1.46728,1.350729 2.03331,2.540285 2.75204,5.78366 1.15417,5.208359 1.50571,6.457701 2.37345,8.435013 1.2155,2.769767 1.19017,2.742557 18.00236,19.336874 17.48288,17.25632 16.63935,16.32088 16.63504,18.44725 -0.004,1.90896 -1.21366,3.97414 -2.7234,4.64901 -0.91497,0.40901 -2.34934,0.3749 -3.56421,-0.0848 z m 2.8737,-0.35727 c -0.1095,-0.0436 -0.32782,-0.0463 -0.48518,-0.006 -0.15735,0.0403 -0.0678,0.076 0.19908,0.0793 0.26685,0.003 0.39559,-0.0298 0.2861,-0.0734 z m 0.72131,-0.15092 c -0.0537,-0.0529 -0.19323,-0.0585 -0.30997,-0.0126 -0.12901,0.0508 -0.0907,0.0885 0.0977,0.0961 0.17048,0.007 0.266,-0.0307 0.21226,-0.0836 z m -1.97776,-0.22214 c 0.28313,-0.11973 0.26602,-0.13818 -0.13728,-0.14797 -0.25341,-0.006 -0.69779,-0.12188 -0.98753,-0.25718 -0.30678,-0.14326 -2.91741,-2.78157 -6.25085,-6.31712 -12.09442,-12.8277 -21.65159,-22.74457 -24.15099,-25.059952 -2.4061,-2.22896 -5.33181,-3.970803 -8.065,-4.801564 -1.13293,-0.344357 -2.92864,-0.710749 -3.3836,-0.69038 -0.15391,0.0069 -0.32893,-0.06565 -0.38894,-0.161192 -0.1729,-0.275309 2.68079,-0.006 3.94606,0.372374 1.62006,0.484498 4.13102,1.755065 5.80814,2.938975 2.29329,1.618878 8.46254,7.863429 23.336,23.620859 8.55539,9.06386 9.12935,9.63817 9.97363,9.97978 0.3869,0.15655 0.70373,0.33835 0.70407,0.404 3.2e-4,0.0657 0.1378,0.11937 0.30549,0.11937 1.98911,0 3.52004,-3.36871 2.45912,-5.41114 -0.26149,-0.5034 -5.01836,-5.30277 -16.01081,-16.15385 -16.54155,-16.328809 -16.64054,-16.434702 -17.96696,-19.221094 -0.85649,-1.799233 -1.34769,-3.348214 -2.02007,-6.370256 -0.31552,-1.418126 -0.73568,-3.222974 -0.9337,-4.010772 -0.37745,-1.501666 -0.38303,-1.558041 -0.2048,-2.068966 0.1053,-0.301842 0.10107,-0.302912 -0.0818,-0.02069 -0.15686,0.242097 -0.22039,0.25694 -0.34057,0.07958 -0.10027,-0.147967 -0.11779,-0.09009 -0.0545,0.180109 0.10936,0.467043 -2.84606,7.584603 -3.29075,7.925129 -0.14836,0.113608 -0.40006,0.173264 -0.55934,0.132569 -0.54482,-0.139197 -1.06237,0.57375 -1.80966,2.492876 -0.78285,2.01044 -0.86923,2.506787 -0.49012,2.816408 0.13244,0.10817 0.20144,0.259354 0.15332,0.335966 -0.0481,0.07661 0.0263,0.09633 0.16534,0.04382 0.18272,-0.069 0.22541,-0.02517 0.15396,0.158059 -0.0805,0.206541 -0.16331,0.219756 -0.44658,0.0713 -0.98218,-0.514748 -0.97005,-1.145986 0.0727,-3.78551 0.9277,-2.348164 1.14533,-2.588556 2.24876,-2.483964 0.3881,0.03679 0.61452,0.01147 0.50315,-0.05627 -0.14998,-0.09122 0.2617,-1.20926 1.58745,-4.311258 0.98447,-2.303457 1.8246,-4.222204 1.86695,-4.263881 0.0423,-0.04168 0.20612,0.02003 0.36393,0.137124 0.2627,0.194923 0.26219,0.186758 -0.006,-0.09668 -0.27742,-0.293226 -0.30402,-0.294846 -0.50331,-0.03065 -0.1924,0.255044 -0.24913,0.223966 -0.66236,-0.362841 -0.88008,-1.249732 -2.81049,-2.351949 -5.05201,-2.884567 -2.67384,-0.635344 -6.26821,-0.35287 -8.264824,0.649514 -0.357848,0.179655 -0.782201,0.284739 -0.943007,0.233519 -0.189869,-0.06048 -0.224492,-0.04454 -0.09875,0.04545 0.127376,0.09117 0.142056,0.218816 0.04291,0.373103 -0.440447,0.68539 -0.277446,0.810348 3.523781,2.70137 2.82309,1.404417 3.72529,1.926234 3.87782,2.24284 0.23828,0.494595 0.31685,1.690598 0.14018,2.133818 -0.10193,0.255725 -0.0918,0.271369 0.0516,0.07957 0.13855,-0.185317 0.1691,-0.08745 0.13655,0.437433 -0.0231,0.371887 -0.0838,0.676264 -0.13489,0.676392 -0.0511,1.29e-4 -0.43466,0.8465 -0.85229,1.880825 -0.73259,1.814351 -0.78343,1.891335 -1.44343,2.185594 -0.37625,0.167752 -0.81145,0.297658 -0.96711,0.288681 -0.31295,-0.01805 -0.38805,0.199541 -0.10133,0.293594 0.0999,0.03278 0.23001,0.343124 0.28905,0.689655 l 0.10736,0.630054 0.31402,-0.849445 c 0.1727,-0.467195 0.4429,-0.917328 0.60043,-1.000295 0.38004,-0.200153 0.36622,-0.100037 -0.17879,1.295301 -0.25828,0.661235 -0.50078,1.084852 -0.54516,0.952317 -0.044,-0.131299 -0.0548,-0.04178 -0.024,0.198939 0.0379,0.296136 -0.0176,0.437666 -0.17156,0.437666 -0.25543,0 -0.83122,-2.228633 -0.67758,-2.622633 0.0497,-0.127542 0.0208,-0.274224 -0.0642,-0.32596 -0.24199,-0.147176 -0.18116,-0.711884 0.0767,-0.711884 0.12724,0 0.26175,0.125331 0.29891,0.278514 0.0519,0.213854 0.0639,0.204994 0.0517,-0.03816 -0.0216,-0.43072 -0.55098,-0.509097 -0.70399,-0.104233 -0.11386,0.301252 -0.30849,0.244275 -3.516758,-1.029509 -1.867925,-0.741627 -3.464135,-1.445746 -3.547134,-1.56471 -0.120659,-0.172943 -0.210091,-0.142258 -0.446164,0.153084 -0.559501,0.69997 -0.526739,1.173238 0.192878,2.786268 1.45418,3.259563 2.229266,4.316486 4.598431,6.270517 1.970177,1.624952 2.456047,2.127381 3.095197,3.200649 0.32863,0.551839 0.37794,0.758424 0.24109,1.010057 -0.27704,0.509421 -0.21308,0.973864 0.13412,0.973864 0.16838,0 0.34772,-0.106626 0.39854,-0.236946 0.0728,-0.186805 0.1834,-0.202898 0.52243,-0.07605 1.00553,0.376218 2.23979,-0.380673 1.6879,-1.035078 -0.17345,-0.205674 -0.15124,-0.243439 0.14316,-0.243439 0.3698,0 0.72784,-0.610883 0.49905,-0.851459 -0.0708,-0.0744 0.0167,-0.278361 0.19445,-0.453242 0.20351,-0.200277 0.29624,-0.45623 0.25053,-0.691539 -0.0662,-0.340753 -0.0285,-0.365751 0.42892,-0.284532 0.27582,0.04897 1.15647,0.299789 1.95701,0.557368 2.34485,0.754471 4.69563,2.119702 6.7006,3.891406 0.70766,0.625331 13.30629,13.684751 27.56389,28.572021 1.82986,1.91068 2.42554,2.42997 3.2345,2.81976 1.12127,0.54027 1.04386,0.52248 1.47675,0.33942 z m -0.44474,-1.1597 c -0.73682,-0.17633 -0.79024,-0.51501 -0.10257,-0.65036 0.27715,-0.0545 0.78658,-0.37735 1.13208,-0.71735 0.5685,-0.55946 0.62817,-0.69669 0.62817,-1.44489 0,-0.70638 -0.0706,-0.89623 -0.48518,-1.30418 -0.26684,-0.2626 -0.48517,-0.5364 -0.48517,-0.60844 0,-0.25309 1.21848,-0.13127 1.72133,0.17209 1.00142,0.60415 1.28863,1.89948 0.69066,3.11505 -0.56913,1.15695 -1.82978,1.74189 -3.09932,1.43808 z m 1.0463,-0.39203 c 1.98505,-0.68535 2.48472,-2.47615 1.05694,-3.78805 -0.58943,-0.54159 -0.64273,-0.56515 -0.38583,-0.17053 0.47814,0.73446 0.60154,1.36543 0.40647,2.07832 -0.24734,0.90393 -0.67597,1.43353 -1.4754,1.82295 -0.83852,0.40845 -0.68379,0.43074 0.39782,0.0573 z m -2.44697,-0.72664 c -0.41289,-0.83935 -0.41954,-1.27241 -0.0322,-2.09829 0.34365,-0.73274 0.87646,-1.2598 1.51374,-1.4974 0.6752,-0.25173 0.58052,0.19349 -0.12872,0.60529 -0.35549,0.20641 -0.69224,0.59047 -0.88594,1.01042 -0.39306,0.85217 -0.39319,1.02507 -0.001,1.78139 0.30427,0.58731 0.30767,0.88544 0.0101,0.88544 -0.0758,0 -0.2898,-0.30908 -0.47563,-0.68685 z M 129.44992,112.6836 c -7.78302,-8.13694 -14.38747,-15.125373 -14.67655,-15.529858 -1.07604,-1.505588 -0.34918,-3.245872 1.3557,-3.245872 0.5458,0 0.82917,0.12056 1.45997,0.621141 1.28784,1.021994 29.37253,28.768199 29.30689,28.953669 -0.0333,0.0941 -0.46083,0.4454 -0.95005,0.78062 -0.92664,0.63495 -1.87896,1.94545 -1.97215,2.71391 -0.0272,0.22409 -0.12219,0.42845 -0.21114,0.45413 -0.0889,0.0257 -6.52965,-6.6108 -14.31267,-14.74774 z m 14.36582,13.30872 c 0.2644,-0.71955 0.72143,-1.27149 1.65268,-1.99588 l 0.76991,-0.59889 -14.74399,-14.50611 C 117.484,95.107142 116.72179,94.385323 116.17645,94.385323 c -0.95403,0 -1.61962,0.879345 -1.37917,1.822111 0.0547,0.214364 0.44463,0.775245 0.86659,1.246402 1.46715,1.638248 27.74858,29.080024 27.8504,29.080024 0.0564,0 0.19203,-0.24369 0.30147,-0.54154 z m -14.56798,-14.75593 c -3.9126,-3.91661 -4.16442,-4.20387 -4.16442,-4.75043 0,-0.91315 0.8247,-1.58788 1.682,-1.37613 0.54135,0.1337 8.43907,8.06055 8.53792,8.5694 0.17719,0.91215 -0.52997,1.70312 -1.53772,1.71995 -0.25214,0.004 -1.54616,-1.18812 -4.51778,-4.16279 z m 5.24333,3.41604 c 0.6639,-0.59125 0.46651,-0.86441 -3.61336,-5.00037 -2.15002,-2.17958 -4.04576,-4.00555 -4.21277,-4.05771 -0.16701,-0.0522 -0.48631,0.0229 -0.70955,0.16688 -0.83129,0.53602 -0.5998,0.86067 3.67577,5.15517 2.28462,2.29475 4.1059,3.99943 4.27298,3.99943 0.16015,0 0.42427,-0.11853 0.58693,-0.2634 z M 101.47148,98.144038 c 0,-0.135624 0.1247,-0.503915 0.2771,-0.818424 0.1815,-0.374546 0.21967,-0.60977 0.11062,-0.681792 -0.0916,-0.06048 -0.38972,-0.432239 -0.66258,-0.826138 -0.27286,-0.393899 -0.65014,-0.852611 -0.83839,-1.019362 -0.35417,-0.31372 -0.460164,-0.731301 -0.18562,-0.731301 0.0862,0 0.11843,-0.09802 0.0717,-0.217811 -0.0503,-0.128894 0.0497,-0.252457 0.24486,-0.302681 0.28063,-0.07222 0.30563,-0.04045 0.16772,0.213148 -0.13087,0.240632 -0.0213,0.48616 0.56884,1.275096 0.40201,0.537393 0.73092,1.045934 0.73092,1.13009 0,0.08416 0.11723,0.268379 0.26052,0.409386 0.23955,0.235735 0.23706,0.273261 -0.0309,0.466087 -0.16807,0.120942 -0.20585,0.209709 -0.0892,0.209709 0.1112,0 0.15647,0.07279 0.1006,0.161747 -0.0559,0.08896 -0.15359,0.13012 -0.21714,0.09147 -0.0636,-0.03866 -0.11311,0.114326 -0.11012,0.339958 0.003,0.22563 -0.0855,0.441102 -0.19672,0.478825 -0.11119,0.03772 -0.20216,-0.04238 -0.20216,-0.178004 z m 0.91645,-1.6367 c -0.19023,-0.187201 -0.1175,-0.578062 0.32021,-1.720761 0.50364,-1.314822 0.49715,-1.305123 0.72423,-1.081659 0.12753,0.125507 0.0326,0.542085 -0.34225,1.501326 -0.58494,1.496994 -0.55656,1.444412 -0.70219,1.301094 z m -3.425046,-3.59886 c -2.343366,-1.898709 -3.598827,-3.370202 -4.64666,-5.446232 -0.956074,-1.894231 -1.263598,-3.103448 -0.789258,-3.103448 0.06745,0 0.248846,0.393982 0.403091,0.875515 0.462088,1.442583 1.642611,3.591697 2.596735,4.727291 0.804436,0.95744 3.541618,3.309661 3.851308,3.309661 0.0677,0 0.12303,-0.107427 0.12303,-0.238727 0,-0.1313 0.10917,-0.238727 0.24259,-0.238727 0.40303,0 0.27401,0.268619 -0.28488,0.593123 l -0.527467,0.30626 z m 11.051146,0.322999 c -0.11754,-0.109416 -0.28752,-0.198939 -0.37773,-0.198939 -0.44508,0 -2.71313,-0.810581 -2.7852,-0.995405 -0.14488,-0.371548 0.0379,-0.365588 1.25214,0.04084 0.65323,0.218645 1.21037,0.397536 1.23807,0.397536 0.0277,0 0.1605,-0.25941 0.29512,-0.576465 0.26228,-0.617737 0.33303,-1.079906 0.11318,-0.739294 -0.0989,0.153231 -0.3285,0.139665 -1.04874,-0.06197 -0.89386,-0.250234 -1.09302,-0.409358 -0.76333,-0.609876 0.19501,-0.118604 2.42882,0.519654 2.42882,0.693979 0,0.06889 0.15638,0.119574 0.34752,0.112623 0.19113,-0.007 0.38242,0.08658 0.42508,0.20785 0.0607,0.172614 -0.0461,0.197658 -0.49194,0.115344 -0.41137,-0.07594 -0.56726,-0.04878 -0.56134,0.09781 0.0221,0.54866 -0.0674,0.761114 -0.32579,0.772915 -0.39194,0.0179 0.58341,0.448038 1.03706,0.45735 0.2895,0.0059 0.43164,-0.20521 0.82544,-1.226244 0.62692,-1.625443 1.05487,-2.915208 0.98417,-2.966073 -0.0313,-0.02252 -0.40659,-0.238055 -0.83398,-0.47897 -0.67231,-0.378975 -0.74993,-0.395264 -0.57577,-0.120823 0.16002,0.252145 0.16025,0.365886 0.001,0.554542 -0.16827,0.199525 -0.12164,0.254306 0.29274,0.34387 0.2711,0.0586 0.49291,0.208275 0.49291,0.33262 0,0.305387 -0.5955,0.28821 -0.77206,-0.02227 -0.10893,-0.191555 -0.18623,-0.10056 -0.33798,0.397878 -0.10821,0.355426 -0.26432,0.646228 -0.3469,0.646228 -0.0826,0 -0.10827,0.107427 -0.0571,0.238727 0.0605,0.155026 -0.004,0.238727 -0.18433,0.238727 -0.21756,0 -0.2548,-0.08873 -0.17255,-0.411213 0.0693,-0.271589 0.0465,-0.375726 -0.067,-0.306701 -0.23913,0.145437 -1.78127,-0.379938 -1.7843,-0.607874 -0.002,-0.138379 -0.0341,-0.137252 -0.12557,0.0044 -0.0685,0.105976 -0.21307,0.135809 -0.32584,0.06722 -0.26893,-0.163563 0.12183,-0.950236 0.42294,-0.851464 0.14216,0.04664 0.15563,0.12755 0.0434,0.260645 -0.12201,0.144669 0.14463,0.282021 1.06451,0.548346 0.67501,0.195431 1.26679,0.316463 1.31506,0.268961 0.0483,-0.0475 0.003,-0.08637 -0.1009,-0.08637 -0.10377,0 -0.18868,-0.07162 -0.18868,-0.159151 0,-0.08753 0.1213,-0.159151 0.26955,-0.159151 0.36643,0 0.18213,-0.15632 -0.29014,-0.246078 -1.08514,-0.206242 -1.73807,-0.483654 -1.61176,-0.684788 0.10458,-0.166518 0.27147,-0.170637 0.84098,-0.02076 0.39078,0.102843 0.795,0.255081 0.89827,0.338306 0.27977,0.225474 0.42557,-0.113165 0.16087,-0.37365 -0.12121,-0.11928 -0.53048,-0.354484 -0.9095,-0.522678 -0.63337,-0.281064 -0.70474,-0.284798 -0.88206,-0.04615 -0.31971,0.430267 -0.63715,0.105659 -0.39922,-0.408231 0.2405,-0.519445 0.32878,-0.520713 1.42091,-0.02041 0.47991,0.219845 0.89805,0.374631 0.92921,0.34397 0.0312,-0.03066 -0.41608,-0.433188 -0.99385,-0.894503 -0.57778,-0.461316 -1.05051,-0.859803 -1.05051,-0.885527 0,-0.02573 0.10668,-0.08706 0.23706,-0.136292 0.13945,-0.05266 0.62225,0.223755 1.17251,0.671278 0.51449,0.418438 1.35946,0.996578 1.8777,1.284754 0.51825,0.288177 0.98644,0.637259 1.04044,0.775738 0.10843,0.278072 -1.01026,3.619892 -1.45471,4.345575 -0.22212,0.362677 -0.39676,0.458227 -0.83751,0.458227 -0.30627,0 -0.65303,-0.08952 -0.77057,-0.198939 z m -8.86359,-0.282934 c 0.179,-0.329139 0.26394,-0.338566 2.42441,-0.269034 l 2.23892,0.07206 0.0961,-0.376755 c 0.0968,-0.379463 0.32164,-0.492425 0.47959,-0.240927 0.0469,0.07471 -0.002,0.363102 -0.10841,0.640882 -0.18969,0.494544 -0.20894,0.50248 -0.92482,0.381412 -0.80355,-0.135893 -3.01097,-0.114678 -3.85499,0.03705 -0.50839,0.09139 -0.52664,0.07866 -0.35079,-0.244684 z m -0.48761,-0.433246 c -2e-5,-0.06565 0.16307,-0.566977 0.36243,-1.114059 0.25707,-0.705445 0.44479,-0.994695 0.64554,-0.994695 0.25755,0 0.24674,0.095 -0.11984,1.053432 -0.22161,0.579386 -0.40293,1.080713 -0.40293,1.114058 0,0.03334 -0.10916,0.06063 -0.24258,0.06063 -0.13343,0 -0.24261,-0.05371 -0.24262,-0.119363 z m 6.32914,-0.981417 c -0.1663,-0.101144 -0.1753,-0.208544 -0.0385,-0.460029 0.23778,-0.437234 0.232,-0.457244 -0.1613,-0.558458 -0.18707,-0.04814 -0.29179,-0.163755 -0.23304,-0.257288 0.1332,-0.212101 0.57276,-0.224155 0.57276,-0.01571 0,0.08479 0.10457,0.114667 0.23238,0.0664 0.1278,-0.04826 0.19279,-0.189253 0.14442,-0.313308 -0.0534,-0.136975 0.0141,-0.225556 0.17194,-0.225556 0.355,0 0.32702,0.41139 -0.0535,0.78581 -0.17233,0.169594 -0.25033,0.330736 -0.17333,0.35809 0.077,0.02736 0.0534,0.207741 -0.0524,0.400862 -0.12952,0.236314 -0.26339,0.307983 -0.4094,0.21918 z m 3.85957,-1.218581 c 0,-0.148208 0.11003,-0.229398 0.26961,-0.198939 0.40574,0.07743 0.46145,0.449334 0.0673,0.449334 -0.19865,0 -0.33692,-0.102762 -0.33692,-0.250395 z m -3.8814,-1.10239 c 0,-0.163919 0.10599,-0.241978 0.28302,-0.208429 0.34089,0.0646 0.31939,0.347058 -0.0319,0.419037 -0.14652,0.03002 -0.25113,-0.05771 -0.25113,-0.210608 z m 1.1296,-0.835543 c -0.002,-0.222931 -0.031,-0.234183 -0.14541,-0.05638 -0.15374,0.238934 -0.66074,0.133382 -0.66074,-0.13756 0,-0.183035 0.37922,-0.209067 0.92992,-0.06383 0.40485,0.10677 0.502,0.536293 0.12129,0.536293 -0.13342,0 -0.2437,-0.125331 -0.24506,-0.278514 z m -2.87977,-6.88329 c 7e-5,-0.568965 -0.0839,-1.50259 -0.18665,-2.074722 l -0.18677,-1.040239 -3.7091,-1.574135 c -2.162599,-0.917805 -3.709093,-1.661926 -3.709093,-1.784694 0,-0.115808 0.05458,-0.210602 0.121294,-0.210654 0.06671,-5.2e-5 1.841953,0.725059 3.944979,1.611358 l 3.82369,1.611452 0.25358,1.599672 c 0.24134,1.522436 0.23896,1.630977 -0.0492,2.248058 l -0.30282,0.648387 z m 43.92608,48.996814 c -0.0404,-0.1192 -0.11368,-0.0471 -0.17087,0.16815 -0.0703,0.26472 -0.0493,0.32686 0.0707,0.20876 0.094,-0.0925 0.13905,-0.2621 0.10015,-0.37691 z M 102.92206,86.507339 c 0,-0.08753 -0.0705,-0.05172 -0.15678,0.07958 -0.0862,0.131299 -0.15677,0.310344 -0.15677,0.397878 0,0.08753 0.0706,0.05172 0.15677,-0.07958 0.0862,-0.1313 0.15678,-0.310345 0.15678,-0.397878 z m 0.47866,-1.114058 c 0,-0.08753 -0.104,0.01989 -0.23112,0.238726 -0.12712,0.218833 -0.23113,0.469496 -0.23113,0.55703 0,0.08753 0.10401,-0.01989 0.23113,-0.238727 0.12712,-0.218833 0.23112,-0.469496 0.23112,-0.557029 z m 0.6469,-1.432361 c 0,-0.08753 -0.104,0.01989 -0.23112,0.238727 -0.12712,0.218833 -0.23113,0.469496 -0.23113,0.557029 0,0.08753 0.10401,-0.01989 0.23113,-0.238727 0.12712,-0.218833 0.23112,-0.469496 0.23112,-0.557029 z m -11.037088,0.04973 c -0.05163,-0.12696 -0.08995,-0.08925 -0.09771,0.09615 -0.007,0.167771 0.0312,0.26177 0.08494,0.208886 0.05374,-0.05289 0.05949,-0.190153 0.01277,-0.30504 z m 0.462211,-0.596176 c -0.05863,-0.09336 -0.229665,-0.161432 -0.380076,-0.151278 -0.246551,0.01665 -0.245611,0.02563 0.0095,0.09125 0.15566,0.04003 0.283019,0.151086 0.283019,0.24679 0,0.0957 0.04367,0.131026 0.09706,0.07849 0.05338,-0.05253 0.04909,-0.171895 -0.0095,-0.265252 z m 11.066567,-0.567617 c 0,-0.08753 -0.0705,-0.05173 -0.15677,0.07958 -0.0862,0.1313 -0.15678,0.310345 -0.15678,0.397878 0,0.08753 0.0706,0.05172 0.15678,-0.07958 0.0862,-0.1313 0.15677,-0.310345 0.15677,-0.397878 z m -7.712671,-8.043448 c -0.04744,-0.178538 -0.122397,-0.289054 -0.166563,-0.245591 -0.08749,0.0861 0.06705,0.570206 0.182027,0.570206 0.03894,0 0.03198,-0.146077 -0.01546,-0.324615 z"
         id="path7006"
         inkscape:connector-curvature="0" />
    </g>
    <flowRoot
       xml:space="preserve"
       id="flowRoot104"
       style="font-style:normal;font-weight:normal;font-size:40px;line-height:1.25;font-family:sans-serif;letter-spacing:0px;word-spacing:0px;fill:#000000;fill-opacity:1;stroke:none"><flowRegion
         id="flowRegion106"><rect
           id="rect108"
           width="87"
           height="140"
           x="-272"
           y="446.51965" /></flowRegion><flowPara
         id="flowPara110" /></flowRoot>    <text
       xml:space="preserve"
       style="font-style:normal;font-weight:normal;font-size:10.58333302px;line-height:1.25;font-family:sans-serif;letter-spacing:0px;word-spacing:0px;fill:#000000;fill-opacity:1;stroke:none;stroke-width:0.26458332"
       x="21.960417"
       y="90.360405"
       id="text122"><tspan
         sodipodi:role="line"
         id="tspan120"
         x="21.960417"
         y="99.724174"
         style="stroke-width:0.26458332" /></text>
    <text
       xml:space="preserve"
       style="font-style:normal;font-variant:normal;font-weight:bold;font-stretch:normal;font-size:63.87394333px;line-height:1.25;font-family:'.Helvetica Neue DeskInterface';-inkscape-font-specification:'.Helvetica Neue DeskInterface, weight=760';font-variant-ligatures:normal;font-variant-caps:normal;font-variant-numeric:normal;font-feature-settings:normal;text-align:start;letter-spacing:0px;word-spacing:0px;writing-mode:lr-tb;text-anchor:start;fill:#000000;fill-opacity:1;stroke:none;stroke-width:1.50868952"
       x="8.2629642"
       y="275.14508"
       id="text148"
       transform="scale(0.96600055,1.0351961)"
       inkscape:export-filename="/Users/kotsurm/Desktop/ex1.png"
       inkscape:export-xdpi="96"
       inkscape:export-ydpi="96"><tspan
         sodipodi:role="line"
         id="tspan150"
         x="8.2629642"
         y="275.14508"></tspan></text>
    <path
       style="opacity:0;fill:#ffffff;fill-opacity:0.90980392;stroke:#000000;stroke-width:1.4592011;stroke-miterlimit:4;stroke-dasharray:none;stroke-dashoffset:0;stroke-opacity:1"
       d="M 136.22493,26.758104 V 6.9591144 h 16.26346 16.26345 v 3.1819806 3.18198 h -9.89949 -9.8995 v 3.535534 3.535534 h 6.36396 6.36396 v 2.828427 2.828427 h -6.36396 -6.36396 v 7.071068 7.071067 h 9.8995 9.89949 v 3.181981 3.18198 h -16.26345 -16.26346 z"
       id="path1432"
       inkscape:connector-curvature="0"
       transform="matrix(0.26458333,0,0,0.26458333,2.6457558,185.70031)" />
    <path
       style="opacity:0;fill:#b1ffff;fill-opacity:0.90980392;stroke:#000000;stroke-width:1.45889771;stroke-miterlimit:4;stroke-dasharray:none;stroke-dashoffset:0;stroke-opacity:1"
       d="M 22.380741,26.40455 V 6.2520077 H 16.01678 9.6528195 V 3.4235806 0.59515357 H 29.098255 48.543691 V 3.4235806 6.2520077 H 41.826177 35.108663 V 26.40455 46.557093 h -6.363961 -6.363961 z"
       id="path1434"
       inkscape:connector-curvature="0"
       transform="matrix(0.26458333,0,0,0.26458333,2.6457558,185.70031)" />
    <path
       style="opacity:0;fill:#ffffff;fill-opacity:0.90980392;stroke:#000000;stroke-width:1.0315963;stroke-miterlimit:4;stroke-dasharray:none;stroke-dashoffset:0;stroke-opacity:1"
       d="M 235.22123,296.04062 C 173.57994,234.07852 96.098714,156.21751 63.040729,123.01615 L 2.9353052,62.650047 173.34803,63.044824 c 93.72701,0.217127 171.09217,0.601251 171.92258,0.853608 1.49368,0.453919 1.51495,0.732565 1.98718,26.030201 0.26254,14.064257 0.37861,91.541147 0.25792,172.170867 L 347.2963,408.699 Z m 80.17323,4.91239 c 6.11792,-1.828 11.06228,-9.34194 11.02666,-16.75723 -0.0325,-6.77582 0.47482,-6.21147 -55.87075,-62.14457 -35.66704,-35.40596 -53.92592,-54.02802 -55.84122,-56.95192 -4.08565,-6.23718 -6.67212,-13.5046 -10.64647,-29.91428 -1.9238,-7.94315 -4.26554,-15.93994 -5.20389,-17.77065 -3.25277,-6.34613 -10.59349,-11.92136 -19.43004,-14.757 -5.06329,-1.62481 -18.51236,-2.00355 -24.6632,-0.69454 -9.08464,1.93336 -13.28887,4.9434 -14.66818,10.50174 -0.68336,2.75378 1.15707,4.16812 14.3797,11.05051 14.00055,7.28731 13.79863,6.87595 9.17824,18.6981 -1.91284,4.89435 -2.31507,5.44988 -3.65302,5.04519 -0.82692,-0.25012 -7.29071,-2.68504 -14.36399,-5.41093 -8.78431,-3.3853 -13.39623,-4.82171 -14.55079,-4.53193 -1.09067,0.27373 -2.38708,1.70443 -3.6544,4.03291 l -1.96409,3.60867 1.22903,3.30268 c 1.93028,5.18717 7.28638,15.31761 9.92727,18.77628 1.32211,1.73152 5.31827,5.62087 8.88034,8.64299 4.3172,3.66279 7.51517,7.1004 9.59186,10.31064 3.72035,5.75106 6.10903,7.23197 10.91953,6.76974 4.32215,-0.41531 5.34346,-1.29786 7.82887,-6.76521 1.7828,-3.92179 2.21577,-4.40483 3.59302,-4.00863 3.29192,0.94703 11.90719,5.29415 15.84321,7.99422 4.92981,3.38181 22.67859,21.2486 70.36279,70.83065 19.63618,20.41771 36.46748,37.53145 37.40289,38.03053 2.36848,1.26368 7.73164,2.87771 9.75043,2.93436 0.92715,0.026 2.99544,-0.34403 4.5962,-0.82232 z"
       id="path1436"
       inkscape:connector-curvature="0"
       transform="matrix(0.26458333,0,0,0.26458333,2.6457558,185.70031)" />
    <path
       style="opacity:0;fill:#ffffff;fill-opacity:0.90980392;stroke:#000000;stroke-width:1.0315963;stroke-miterlimit:4;stroke-dasharray:none;stroke-dashoffset:0;stroke-opacity:1"
       d="m 160.35366,165.17425 c 0.81437,-2.04177 1.88485,-4.826 2.37884,-6.18718 0.494,-1.36118 3.30292,-8.08418 6.24207,-14.94001 l 5.3439,-12.46513 -0.73174,-4.93009 c -0.40245,-2.71155 -0.93899,-5.25683 -1.19232,-5.65617 -0.25332,-0.39935 -5.06626,-2.7015 -10.69542,-5.11591 -5.62915,-2.41441 -11.01511,-4.79867 -11.9688,-5.29835 -1.72476,-0.90369 -1.7261,-0.91273 -0.25284,-1.70119 3.05397,-1.63444 9.85968,-2.92575 15.35719,-2.91388 11.10335,0.024 20.29652,3.1806 25.9045,8.89471 l 3.0286,3.08592 -1.21023,3.72626 c -0.66562,2.04945 -3.0556,8.00128 -5.31106,13.22629 -3.75741,8.70445 -4.29564,9.56562 -6.427,10.28325 -2.96867,0.99954 -3.65554,1.985 -6.71976,9.6409 -2.72503,6.80844 -3.12061,9.85517 -1.45866,11.23447 0.58336,0.48414 1.06066,1.3186 1.06066,1.85434 0,0.76544 -1.58812,0.97408 -7.4143,0.97408 h -7.41431 z"
       id="path1438"
       inkscape:connector-curvature="0"
       transform="matrix(0.26458333,0,0,0.26458333,2.6457558,185.70031)" />
    <path
       style="opacity:0;fill:#ffffff;fill-opacity:0.90980392;stroke:#000000;stroke-width:1.0315963;stroke-miterlimit:4;stroke-dasharray:none;stroke-dashoffset:0;stroke-opacity:1"
       d="M 136.22493,26.758104 V 6.9591144 h 16.26346 16.26345 v 3.1819806 3.18198 h -9.89949 -9.8995 v 3.535534 3.535534 h 6.36396 6.36396 v 2.828427 2.828427 h -6.36396 -6.36396 v 7.071068 7.071067 h 9.8995 9.89949 v 3.181981 3.18198 h -16.26345 -16.26346 z"
       id="path1440"
       inkscape:connector-curvature="0"
       transform="matrix(0.26458333,0,0,0.26458333,2.6457558,185.70031)" />
    <text
       xml:space="preserve"
       style="font-style:normal;font-weight:normal;font-size:10.58333302px;line-height:1.25;font-family:sans-serif;letter-spacing:0px;word-spacing:0px;fill:#000000;fill-opacity:1;stroke:none;stroke-width:0.26458332"
       x="107.22832"
       y="232.05371"
       id="text1452"><tspan
         sodipodi:role="line"
         id="tspan1450"
         x="107.22832"
         y="241.41748"
         style="stroke-width:0.26458332" /></text>
    <text
       xml:space="preserve"
       style="font-style:normal;font-weight:normal;font-size:10.58333302px;line-height:1.25;font-family:sans-serif;letter-spacing:0px;word-spacing:0px;fill:#ffffff;fill-opacity:0.90980392;stroke:none;stroke-width:0.26458332"
       x="108.91212"
       y="244.77573"
       id="text2021"><tspan
         sodipodi:role="line"
         id="tspan2019"
         x="108.91212"
         y="244.77573"
         style="font-style:normal;font-variant:normal;font-weight:normal;font-stretch:normal;font-size:28.22222137px;font-family:'8-bit pusab';-inkscape-font-specification:'8-bit pusab, Normal';font-variant-ligatures:normal;font-variant-caps:normal;font-variant-numeric:normal;font-feature-settings:normal;text-align:start;writing-mode:lr-tb;text-anchor:start;fill:#ffffff;fill-opacity:0.90980392;stroke-width:0.26458332">Typesafe</tspan><tspan
         sodipodi:role="line"
         x="108.91212"
         y="280.39111"
         style="font-style:normal;font-variant:normal;font-weight:normal;font-stretch:normal;font-size:28.22222137px;font-family:'8-bit pusab';-inkscape-font-specification:'8-bit pusab, Normal';font-variant-ligatures:normal;font-variant-caps:normal;font-variant-numeric:normal;font-feature-settings:normal;text-align:start;writing-mode:lr-tb;text-anchor:start;fill:#ffffff;fill-opacity:0.90980392;stroke-width:0.26458332"
         id="tspan2023">Utrecht</tspan></text>
    <flowRoot
       xml:space="preserve"
       id="flowRoot2063"
       style="font-style:normal;font-weight:normal;font-size:40px;line-height:1.25;font-family:sans-serif;letter-spacing:0px;word-spacing:0px;fill:#000000;fill-opacity:1;stroke:none"
       transform="matrix(0.26458333,0,0,0.26458333,2.6457558,201.89268)"><flowRegion
         id="flowRegion2065"><rect
           id="rect2067"
           width="599.62653"
           height="382.54477"
           x="-8.485281"
           y="-13.284801" /></flowRegion><flowPara
         id="flowPara2069"></flowPara></flowRoot>  </g>
  <g
     inkscape:groupmode="layer"
     id="layer2"
     inkscape:label="Background"
     style="display:inline"
     transform="translate(-2.6457558,-201.89268)">
    <rect
       id="rect162"
       width="116.41666"
       height="116.41666"
       x="-4.4408921e-16"
       y="180.58333"
       style="opacity:0;fill:#000000;fill-opacity:1;stroke-width:0.67292875" />
  </g>
</svg>
